<svg xmlns="http://www.w3.org/2000/svg" viewBox="0 0 89.7 55.6"><path class="wheels" d="M79.4,24.3a35.1,35.1,0,0,0,4.7-3.7c1.1-1.1,4.1-5.4-2.3-11.8C76.9,3.8,64.9.4,64.4.3a1.7,1.7,0,0,0-1.2.1L57.7,3.9a1.5,1.5,0,0,0,.4,2.7c4.7,1.3,11.3,4.2,11.7,6.8l-1,1c-1.7-1.1-8.5-5.2-9.7-5.4-14.1-2.3-18.7,4.8-19,7L27.6,13.5l-2.2-3.2a1.4,1.4,0,0,0-1-.7L4.3,6.1a1.5,1.5,0,0,0-1.6.8,1.5,1.5,0,0,0,.2,1.7l7.8,8.1,5.9,3.4-.5,3.1a16.3,16.3,0,0,0,.4,32.6,16.1,16.1,0,0,0,11.9-5.3h.9a1.6,1.6,0,0,0,1.8.9c3.8-1.1,10.5-2.8,12-2.8a146,146,0,0,1,14.7,1.8,1.9,1.9,0,0,0,1.5-.6l.8-1.1a16.2,16.2,0,0,0,29.7-9.1A16.4,16.4,0,0,0,79.4,24.3Zm1.5,8.3a8.6,8.6,0,0,1,2,3.3l-2.3,3.2a6.3,6.3,0,0,0-3.4-5.5c-2.3-1.4-3.3-.8-3.3-.8L73,29.5A9.8,9.8,0,0,1,80.9,32.6ZM24.7,22.3l6.7,3.5.5,7H30.4a15.1,15.1,0,0,0-6.8-7.1ZM16.4,49.2a9.8,9.8,0,0,1-9.1-6L10,39.6a6.6,6.6,0,0,0,5.9,6.2v.4a3.8,3.8,0,0,0,.4,2.2C16.4,48.7,16.6,49.2,16.4,49.2Zm.5-16.4s-3.9.1-5.7,2.8h0L6.7,41.5a14.9,14.9,0,0,1-.2-2.1,10,10,0,0,1,6.9-9.5l3.5,2.7h0Zm.2-2-1.8-1.3a12,12,0,0,1,1.9,0Zm4.8.3a10.5,10.5,0,0,1,1.9,1.7H21.4ZM26.1,41a7,7,0,0,1-.8,2.3l-3.5-.2A8.1,8.1,0,0,0,23,40.2l2.7-.4a.4.4,0,0,0,.1.3l.4.7C26.2,40.9,26.1,40.9,26.1,41Zm.9,2.4a2.4,2.4,0,0,0,.2-.8l.5.8Zm36.8-4.2L67,33l1.7,2.4c-.1,0-4.7,6.1-4.7,6.1A17.9,17.9,0,0,1,63.8,39.2Zm2.7,6.9a8.1,8.1,0,0,1-1.9-2.9l3-3.9h0A6.4,6.4,0,0,0,70,44.4L75.9,49A9.7,9.7,0,0,1,66.5,46.1Zm14,.5a9.5,9.5,0,0,1-2.8,1.8l-3.4-2.6a6.9,6.9,0,0,0,5-2.6l4.1-5.4A9.8,9.8,0,0,1,80.5,46.6Z" transform="translate(-0.2 -0.2)"/><path class="bikeframe" d="M47.4,15.7c1.8-1.3,9,8.2,11.2,7.8s7-3.8,9.4-6.1c-2.2-1.4-8-5.2-10.2-5.6-12.2-2.1-14.7,5.1-14.7,6.3l.8.2Z" transform="translate(-0.2 -0.2)"/><path class="bikeframe" d="M79.7,10.9C75.9,7,66.7,4.1,64.2,3.3L62.1,4.7c4.4,1.6,11.2,4.8,10.7,9.5a2,2,0,0,1-.4.8s-4.2,4.3-5.8,5.6c3.2-.6,8.1-1.1,11,1.3a45.1,45.1,0,0,0,4.3-3.3C83.5,16.8,82.7,14,79.7,10.9Z" transform="translate(-0.2 -0.2)"/><path class="bikeframe" d="M64.8,22.1A15.4,15.4,0,0,1,58.9,25c-3.2.5-10.4-8.4-11-7.9a44.6,44.6,0,0,0-11,11.8l8.6,14.5,11.9,3.7,8.9-15.9h0c1.5-2.6,9.7-8.2,10.4-8.7C73.4,20,67,21.5,64.8,22.1Z" transform="translate(-0.2 -0.2)"/><path class="bikeframe" d="M42.1,40.6,36,40.4l-.5-.2-2.7-2.8H27.2v2.1L32,47.9c3.1-.8,9.2-2.4,11.1-2.4l5,.4s-3.7-1.4-3.7-1.5Z" transform="translate(-0.2 -0.2)"/></svg>
