<svg xmlns="http://www.w3.org/2000/svg" viewBox="0 0 91 65.4"><defs><style>.a{fill:#ea0000;}</style></defs><title>camera</title><path class="a" d="M90,13.5H87.8V11.7a2.7,2.7,0,0,0-2.7-2.8H80.6a1.4,1.4,0,0,0-1.4-1.2,1.4,1.4,0,0,0-1.5,1.2H73.2a2.7,2.7,0,0,0-2.7,2.8v1.8H67.1a.4.4,0,0,0-.1-.3L63.8,7.5l-.2-.3h0L57.3.8a1.2,1.2,0,0,0-1-.5H48.9a1.6,1.6,0,0,0-1.1.5L41.6,7.2h0l-.2.3-3.2,5.7a.4.4,0,0,0-.1.3H28V12.2a3.3,3.3,0,0,0-3.2-3.3H16.1a3.3,3.3,0,0,0-3.3,3.3v1.3H2A1.5,1.5,0,0,0,.5,15V61.1A1.5,1.5,0,0,0,2,62.6H40a27.2,27.2,0,0,0,25.2,0H90a1.5,1.5,0,0,0,1.5-1.5V15A1.5,1.5,0,0,0,90,13.5ZM79.9,34l1.5.8a7.6,7.6,0,0,1,.7,3.3,8.6,8.6,0,0,1-.7,3.3l-1.5.7a26.9,26.9,0,0,0,.3-4A28.3,28.3,0,0,0,79.9,34Zm-.7,11.5a18.6,18.6,0,0,0,4.2-1.8l.4-.5a10.2,10.2,0,0,0,1.3-5.1,10.3,10.3,0,0,0-1.3-5.2c-.1-.2-.3-.3-.4-.4a12.2,12.2,0,0,0-4.2-1.8,24.4,24.4,0,0,0-2.1-5.3H88.5V55H74.4A27.5,27.5,0,0,0,79.2,45.5Zm9.3-23.1H75.3a28,28,0,0,0-5.5-5.9H88.5Zm-65.8,3h5.4A27.1,27.1,0,0,0,25,38.1,27.8,27.8,0,0,0,30.8,55H16.2V45.3c0-10.9,1.1-15.5,3.7-16.2A4.1,4.1,0,0,0,22.7,25.4Zm7.2-3H22.7V16.5H35.4A28,28,0,0,0,29.9,22.4ZM43.5,9.7H61.6l1.7,2.9a28.3,28.3,0,0,0-21.4,0Zm30,2.2H84.8v1.6H73.5Zm-24-8.6h6.1L59,6.7H46.2ZM15.8,12.2a.3.3,0,0,1,.3-.3h8.7c.1,0,.2.1.2.3v1.3H15.8ZM3.5,16.5H19.7v8.8a1,1,0,0,1-.6.9c-4.9,1.3-5.9,7.8-5.9,19.1V59.6H3.5ZM16.2,59.6V58H33.5l1.9,1.6ZM28,38.1A24.6,24.6,0,1,1,52.6,62.7,24.6,24.6,0,0,1,28,38.1ZM69.8,59.6,71.7,58H88.5v1.6Z" transform="translate(-0.5 -0.3)"/><path class="a" d="M52.6,16.3A21.8,21.8,0,1,0,74.4,38.1,21.9,21.9,0,0,0,52.6,16.3Zm0,40.6A18.8,18.8,0,1,1,71.4,38.1,18.8,18.8,0,0,1,52.6,56.9Z" transform="translate(-0.5 -0.3)"/><path class="a" d="M52.6,25.5A12.6,12.6,0,1,0,65.1,38.1,12.6,12.6,0,0,0,52.6,25.5Zm0,22.1a9.6,9.6,0,1,1,9.5-9.5A9.5,9.5,0,0,1,52.6,47.6Z" transform="translate(-0.5 -0.3)"/><path class="a" d="M52.6,31a7.1,7.1,0,1,0,7.1,7.1A7.1,7.1,0,0,0,52.6,31Zm0,11.2a4.1,4.1,0,0,1-4.1-4.1,4.1,4.1,0,0,1,8.2,0A4.1,4.1,0,0,1,52.6,42.2Z" transform="translate(-0.5 -0.3)"/><path class="a" d="M22.4,52.7a1.5,1.5,0,0,0,1.5-1.5V49.1a1.5,1.5,0,0,0-3,0v2.1A1.5,1.5,0,0,0,22.4,52.7Z" transform="translate(-0.5 -0.3)"/><path class="a" d="M85.5,19l-.2-.3-.2-.2a1.7,1.7,0,0,0-2.1,0c-.1.1-.1.2-.2.2s-.1.2-.1.3-.1.2-.1.3v.3a1.3,1.3,0,0,0,.4,1,1.6,1.6,0,0,0,1.1.5,1.2,1.2,0,0,0,1-.5,1.4,1.4,0,0,0,.5-1,.4.4,0,0,0-.1-.3Z" transform="translate(-0.5 -0.3)"/><path class="a" d="M80.3,19c0-.1-.1-.2-.1-.3a.2.2,0,0,1-.2-.2,1.8,1.8,0,0,0-2.2,0,.3.3,0,0,1-.1.2l-.2.3a.4.4,0,0,1-.1.3v.3a1.8,1.8,0,0,0,.4,1l.5.4h.6a1.6,1.6,0,0,0,1.1-.5,1.3,1.3,0,0,0,.4-1v-.3C80.4,19.2,80.3,19.1,80.3,19Z" transform="translate(-0.5 -0.3)"/></svg>