<svg xmlns="http://www.w3.org/2000/svg" viewBox="0 0 82 92.7"><path class="cat-a" d="M80.8,79.6C78.4,73.7,74.2,69,70.3,64.5l-.3-.4c-4-4.5-7.5-8.7-9.2-13.4s-1.1-9.9,1.6-12.9a8.3,8.3,0,0,1,6.1-2.5,5.4,5.4,0,0,1,4.2,1.8,3.8,3.8,0,0,0,5.2.5,3.9,3.9,0,0,0,.5-5.2A13,13,0,0,0,68.7,28a15.5,15.5,0,0,0-11.8,4.9c-4.5,5-5.7,12.8-3,20.3C56.1,59.1,60,63.9,64.5,69l.3.3c3.7,4.3,7.3,8.3,9.3,13.1a22.5,22.5,0,0,1-3.2,22.2,26.7,26.7,0,0,1-8.8,7c4-25.9-8.4-48.7-29-59.4l-.5-.2a11.8,11.8,0,0,0,1.2-4.9,15.1,15.1,0,0,0-1.7-7c.1-.1.1-.3.1-.6V30a1.9,1.9,0,0,0-2.7-1.8L21.4,32a17.5,17.5,0,0,0-4-.5,18.4,18.4,0,0,0-4.1.5l-8-3.8A2,2,0,0,0,2.5,30v9.5c0,.3.1.5.1.7A15.9,15.9,0,0,0,1,47.1c0,5.5,4.5,10.3,9.1,13.2v54.8a4.8,4.8,0,0,0-1.8,3.8c0,2.4,7.6,2.2,9.4.7,1.6,1.9,9.6,1.2,9.6-.7a4.8,4.8,0,0,0-1.4-3.5V100.3c1.5,3.7,3,7.7,4.4,11.7a6.1,6.1,0,0,0,.7,1.4,4.1,4.1,0,0,0-2.1,3.4h0a3.8,3.8,0,0,0,3.8,3.8H56.8c7.3-.8,14.7-5.1,19.8-11.4A29.6,29.6,0,0,0,80.8,79.6Zm-63,37.5a3.5,3.5,0,0,0-.8-1.3V87.9l.7.4,1.2.6v26.5h0A5,5,0,0,0,17.8,117.1Z" transform="translate(-1 -28)"/></svg>
