<svg xmlns="http://www.w3.org/2000/svg" viewBox="0 0 377 377"><polygon class="f-icon" points="90.3 166.5 90.3 200.9 115.9 183.7 90.3 166.5"/><polygon class="f-icon" points="98.5 220 178.8 273.6 178.8 225.8 134.4 196 98.5 220"/><polygon class="f-icon" points="279.7 147.4 199.3 93.8 199.3 141.6 243.8 171.4 279.7 147.4"/><polygon class="f-icon" points="178.8 141.6 178.8 93.8 98.5 147.4 134.4 171.4 178.8 141.6"/><polygon class="f-icon" points="199.3 225.8 199.3 273.6 279.7 220 243.8 196 199.3 225.8"/><path class="f-icon" d="M188.5,0C84.4,0,0,84.4,0,188.5S84.4,377,188.5,377,377,292.6,377,188.5,292.6,0,188.5,0ZM308.4,220.1c0,.4-.1.8-.1,1.3s-.1.3-.1.4-.1.6-.2.9-.1.3-.1.5l-.3.7-.2.5a4.3,4.3,0,0,1-.4.7l-.3.5-.4.6-.4.5-.5.5c-.1.1-.2.3-.4.4l-.6.5-.4.4h-.2l-109,72.7a10.8,10.8,0,0,1-5.7,1.7,10.6,10.6,0,0,1-5.7-1.7L74.3,228.6h-.1l-.5-.4-.6-.5-.4-.4-.5-.5-.3-.5-.5-.6-.3-.5-.3-.7a.8.8,0,0,1-.2-.5l-.3-.7-.2-.5c0-.3-.1-.6-.1-.9a.6.6,0,0,1-.1-.4,6.2,6.2,0,0,1-.1-1.3V147.4a6.6,6.6,0,0,1,.1-1.4.6.6,0,0,1,.1-.4c0-.3.1-.6.1-.9l.2-.5.3-.7a.8.8,0,0,1,.2-.5l.3-.7.3-.5.5-.6.3-.5.5-.5.4-.4.6-.5.5-.3v-.2L183.4,66.1a10.3,10.3,0,0,1,11.4,0l109,72.7.2.2.4.3.6.5.4.4.5.5.4.5.4.6.3.5a4.3,4.3,0,0,1,.4.7l.2.5.3.7c0,.2.1.3.1.5s.1.6.2.9v.4c0,.5.1.9.1,1.4Z"/><polygon class="f-icon" points="287.9 200.9 287.9 166.5 262.2 183.7 287.9 200.9"/><polygon class="f-icon" points="189.1 159.4 152.8 183.7 189.1 208 225.3 183.7 189.1 159.4"/></svg>
