<svg xmlns="http://www.w3.org/2000/svg" viewBox="0 0 30.4 30.4"><path class="f-icon" d="M15.3,31A15.2,15.2,0,1,1,30.5,15.8,15.3,15.3,0,0,1,15.3,31Zm7.1-21a12.2,12.2,0,0,1-5.2,3.8,5.9,5.9,0,0,1,.6,1.4l.3.4a18.4,18.4,0,0,1,6.4.4A9.5,9.5,0,0,0,22.4,10ZM15.2,6.5a8.3,8.3,0,0,0-2.2.3,36.2,36.2,0,0,1,3.5,5.6,10.7,10.7,0,0,0,4.9-3.5A9,9,0,0,0,15.2,6.5Zm-3.9.9a9.4,9.4,0,0,0-5.2,6.7,34.2,34.2,0,0,0,8.6-1.2C13.2,10.1,11.5,7.8,11.3,7.4ZM5.9,16a9.6,9.6,0,0,0,2.4,6.4,14.9,14.9,0,0,1,7.6-6.3h.3a11.1,11.1,0,0,0-.7-1.6,36.3,36.3,0,0,1-9.6,1.4Zm9.3,9.6a9.5,9.5,0,0,0,3.7-.8,50.6,50.6,0,0,0-2-7.2h-.1a13.1,13.1,0,0,0-7.3,6A9.6,9.6,0,0,0,15.2,25.6Zm5.2-1.7a9.3,9.3,0,0,0,4-6.3,14.1,14.1,0,0,0-5.8-.5A49.4,49.4,0,0,1,20.4,23.9Z" transform="translate(0 -0.6)"/></svg>
