<svg xmlns="http://www.w3.org/2000/svg" viewBox="0 0 1440 218.2"><path class="ground" d="M1160.9,116l-3,.2H774.3C683.9,88.3,602.4,61.7,570.8,61.7c-66.4,0-335.1,27.1-411.1,0-22.3-8-64-10.8-105.3-11.4a4.3,4.3,0,0,0,.4-.7L57,46.3l2.4-3.1c.9-1,1.6-2,2.5-2.9s1.6-1.8,2.5-2.6l2.3-2.2,2.1-1.8.9-.7.8-.6L72,31.3l-.2-.3-1.7.8-1.9,1-2.4,1.5-2.7,2-1.4,1.1-1.4,1.2c-1,.8-1.9,1.8-2.9,2.7l-2.8,3-2.7,3.1-2.2,2.7H47.5a2.5,2.5,0,0,1,.4-.7c1.1-2.3,2-4.9,3.2-7.4l3.5-7.3c.6-1.1,1.2-2.2,1.7-3.3s1.1-2,1.7-2.9,1.1-1.7,1.5-2.3l1.3-1.7,1-1,.4-.3-.2-.3-.4.3-1.2.8-.8.7-.8.9-1.9,2.2-2.1,2.7-2.1,3.1c-.7,1.1-1.5,2.2-2.2,3.4l-2.1,3.6-2.1,3.6c-.7,1.2-1.4,2.4-1.9,3.5l-1.1,2.4H40v-.3l.3-2a14.2,14.2,0,0,1,.4-2c.2-1.3.5-2.7.8-4l.9-3.8c.3-1.2.7-2.4,1-3.5s.8-2.1,1.1-3.1a20.5,20.5,0,0,1,1.1-2.5,10.9,10.9,0,0,1,1-1.9l.9-1.6-.3-.2L46,26.7l-.6.8-.6,1-1.5,2.4-1.6,3-1.5,3.5c-.4,1.2-1,2.5-1.4,3.8s-.9,2.6-1.2,3.9c0-2.7-.3-5.6-.5-8.4s-.4-6.1-.8-9c-.2-1.4-.3-2.8-.6-4.1s-.4-2.5-.7-3.7-.5-2.2-.7-3.1a21.9,21.9,0,0,0-.7-2.3,6.4,6.4,0,0,0-.6-1.4,1,1,0,0,1-.2-.5l-.3.2.2.5.4,1.5c.1.3.1.7.2,1.1s.1.8.2,1.3a25.1,25.1,0,0,1,.3,3.1c.1,1.1.2,2.3.2,3.6s.1,2.7.1,4.1v8.9c0,1.5-.1,3-.2,4.5s-.2,2.9-.2,4.4,0,3.1.1,4.6h-.6c-.2-1.5-.4-3.2-.8-5a20.2,20.2,0,0,0-.9-3.3l-.9-3.4c-.2-1.2-.5-2.3-.7-3.5l-.6-3.4c-.2-1.1-.3-2.2-.4-3.2s-.2-2-.2-2.9a19.1,19.1,0,0,1,0-2.4,3.1,3.1,0,0,1,.1-1,1.9,1.9,0,0,1,.1-.8c0-.3.1-.5.1-.7a1.1,1.1,0,0,0,.1-.5,1.6,1.6,0,0,0,.1-.4h-.3l-.2.4c-.1.1-.1.3-.2.5a6.4,6.4,0,0,0-.2.7,16.7,16.7,0,0,0-.5,1.9c-.1.7-.3,1.6-.4,2.5a26.6,26.6,0,0,0-.2,3v3.3c0,1.8.2,3.6.3,5.5-.2-.8-.5-1.6-.7-2.3s-1.1-3.6-1.7-5.4L21.9,19.2c-1-3.4-2.1-6.6-2.9-9.3L16.1.8h-.4l2,9.3c.6,2.8,1.3,6,2.1,9.5s1.6,7.2,2.5,10.9c.4,1.8.8,3.5,1.1,5.3-.2-.5-.5-.9-.7-1.4s-1.1-2.2-1.7-3.2l-1.6-2.8L18,26.2a8.3,8.3,0,0,0-1.2-1.7,10.1,10.1,0,0,1-1-1.5l-.3.2.8,1.6c.2.5.6,1.1.9,1.9l1.1,2.5,1.2,2.9c.4,1,.8,2.2,1.3,3.3s.8,2.4,1.3,3.6a4.2,4.2,0,0,0,.4,1l-.5-.7L21.2,38l-.9-1.2-.9-1.1-.9-1a15.3,15.3,0,0,0-1.8-1.8l-1.6-1.4-1.4-.9-1.2-.8-.2.3,1,1,1.1,1.1,1.3,1.6c.5.6.9,1.3,1.4,2l.7,1.1a7.5,7.5,0,0,0,.7,1.2l.7,1.2.6,1.3c.4.9.8,1.8,1.1,2.7s.6,1.9.9,2.8.5,1.9.7,2.8l.6,1.8c-8.1-.3-15.8-.2-23.1,0V219H1440V116Z" transform="translate(0 -0.8)"/></svg>
