<svg xmlns="http://www.w3.org/2000/svg" viewBox="0 0 266.8 62.5"><path class="cap" d="M0,62.5H266.8V17.1c-2.7,1.4-12.7,3.5-47.9,3.5a164,164,0,0,0-26.1,2.5l.4-.4,2.6-2.3a21.4,21.4,0,0,1,2.6-1.9,22.9,22.9,0,0,1,2.4-1.5c.8-.5,1.5-.7,2.2-1.1l1.8-.7,1.6-.5V14h-2.8l-1.1.2c-.8.2-1.7.2-2.6.5l-3,.9a22.2,22.2,0,0,0-3.2,1.4l-3.3,1.8-.6.4a9.1,9.1,0,0,1,.1-1.7,28.5,28.5,0,0,0-.2-3.1l-.6-2.8-.8-2.2a7.9,7.9,0,0,0-.8-1.6l-.8-1.3-.6.3.3,1.4a7.6,7.6,0,0,1,.3,1.6c0,.6.1,1.3.1,2.1s-.1,1.6-.2,2.4A26.1,26.1,0,0,1,186,17c-.3.9-.5,1.8-.9,2.8s-.7,1.9-1.1,2.8a4.1,4.1,0,0,1-.5.9l-1.7,1.4c.3-1,.5-2.1.8-3.1s.7-2.8,1-3.9a13.1,13.1,0,0,0,.5-1.5,5.8,5.8,0,0,1,.5-1.1c.1-.3.3-.4.4-.6l.2-.2-.3-.6h-.3l-.8.5a4.1,4.1,0,0,0-1,.9l-1.2,1.3-.9,1.1-.3-.8a11.9,11.9,0,0,0-.8-2,9.7,9.7,0,0,0-1-1.5l-.5-.6-.5-.4-.9-.7-.5.5a3.9,3.9,0,0,1,.4,1,1.8,1.8,0,0,1,.3,1.1,5.9,5.9,0,0,1,.2,1.4,9.6,9.6,0,0,1,0,1.7,2.8,2.8,0,0,1-.1.9c0,.3-.1.7-.1,1s-.3,1.4-.4,2.1h0l-.9-4.1a65.8,65.8,0,0,0-1.5-6.7,28.1,28.1,0,0,0-1-3.1c-.4-1-.7-1.9-1.1-2.7a22.5,22.5,0,0,0-1.1-2.2l-1-1.6L168.7,0l-.5.5.6,1.4a12.2,12.2,0,0,1,.5,1.7c.2.6.2,1.4.4,2.2s.3,3.6.4,5.7.1,4.3.1,6.6-.1,1.8-.1,2.6a13,13,0,0,1-.8-1.7,23.2,23.2,0,0,0-1.9-3.1,33.9,33.9,0,0,0-2-2.8c-.7-.8-1.3-1.6-2-2.3L161.5,9a8.3,8.3,0,0,0-1.6-1.2l-1.4-1-.5.5,1,1.3,1.1,1.5,1.2,2.1,1.2,2.5,1.2,2.9a29.9,29.9,0,0,1,1,3.2l.9,3.3a5,5,0,0,1,.2,1.2h-.2l-3.1-.9-2.2-.3h-.8l-.2.6.6.5.7.6.9.8,1,.9,1,1.1.8.9c-33.6,8.5-69,20.1-97.3,20.1C57.8,49.5,21.9,58.3,0,62.5Z"/></svg>
