<svg xmlns="http://www.w3.org/2000/svg" viewBox="0 0 30.4 30.4"><path class="f-icon" d="M9.1,6.1V9.7H8.5V6.2A2.7,2.7,0,0,0,6.7,8.8v2.8h5a5.4,5.4,0,0,1,8.2,0h5V8.8a2.7,2.7,0,0,0-2.7-2.7H9.1Zm1.8,6.7H6.7v5.8a5.6,5.6,0,0,0,5.7,5.7h6.7a5.7,5.7,0,0,0,5.8-5.7V12.8H20.7a4.8,4.8,0,0,1,.6,2.4,5.5,5.5,0,0,1-11,0A4.8,4.8,0,0,1,10.9,12.8Zm4.9,17.6A15.2,15.2,0,1,1,31,15.2,15.2,15.2,0,0,1,15.8,30.4ZM10.9,6.1h.6V9.7h-.6Zm-1.2,0h.6V9.7H9.7ZM21,7.3h1.1a1.1,1.1,0,0,1,1,1V9.4a1,1,0,0,1-1,.9H21a1,1,0,0,1-1-.9V8.3A1.1,1.1,0,0,1,21,7.3ZM15.8,19.5a4.3,4.3,0,1,0-4.3-4.3A4.2,4.2,0,0,0,15.8,19.5Z" transform="translate(-0.6)"/></svg>
