<svg xmlns="http://www.w3.org/2000/svg" xmlns:xlink="http://www.w3.org/1999/xlink" viewBox="0 0 180.8 174.6"><defs><style>.a{fill:url(#a);}.b{fill:#e50303;}.c{fill:#fff;}.d{fill:none;}</style><radialGradient id="a" cx="96.93" cy="92.6" fx="179.4775747899415" r="82.6" gradientUnits="userSpaceOnUse"><stop offset="0.13" stop-color="#c42a2c"/><stop offset="1" stop-color="#f15a24"/></radialGradient></defs><title>jlax-logo</title><path class="a" d="M146.9,158.4A82.6,82.6,0,1,1,162.7,42.6,82.6,82.6,0,0,1,146.9,158.4Z" transform="translate(-10.1 -2.9)"/><path class="b" d="M179.5,92.4a78.7,78.7,0,0,0-10.1-35.9,77.6,77.6,0,0,0-22.8-27.2,72.4,72.4,0,0,0-29.9-13.2A100.1,100.1,0,0,0,101,14.5a79.4,79.4,0,0,0-17.9,1.8,63.6,63.6,0,0,0-8.8,2.5l-4.2,1.7-3.9,1.8a56.6,56.6,0,0,0-12.4,8.9l2.3-1.5,2.3-1.4-2.9,2.3L52.9,33A74.3,74.3,0,0,0,28.4,66.3a75.7,75.7,0,0,0-3,41.4,20.2,20.2,0,0,0,.8,2.9l.9,2.7c.3.8.7,1.7,1,2.6a6.9,6.9,0,0,1,.5,1.3l.6,1.4a68.9,68.9,0,0,0,5.6,11.2v-.2a72.2,72.2,0,0,0,17.1,19,67.9,67.9,0,0,0,22.9,11.6,74.1,74.1,0,0,0,24.3,3.5h1.8l1.1.2a11.7,11.7,0,0,0,2.3.3,61.9,61.9,0,0,0,11.6-1,53.7,53.7,0,0,0,12.1-3.5,1.2,1.2,0,0,1,.2.5l3.5-1.8a16.5,16.5,0,0,1-3.3,3.1l-1.9,1.4-1.5,1.2c-.9.6-1.2,1-.5,1.1a18.6,18.6,0,0,0,5.4-1.3h0l-1.7,1H128c-2.7,1.5-4.4,2.5-6,3.6l5.7-2.1c-.3.4-.4.7-.1.8l-.5.4-1.5.6a1.3,1.3,0,0,0-.5.6,37.1,37.1,0,0,1-4,1.9l-4.1,1.6c-2.5.9-4.2,1.6-3.3,1.7a11.2,11.2,0,0,0,3.7-.7l2.7-.9,3.1-1.1h.9c-5.6,2,.4,1.2-3,2.4a77.8,77.8,0,0,1-14.3,3.2,87.8,87.8,0,0,1-14.4.4,89.7,89.7,0,0,1-13.8-1.7,93.6,93.6,0,0,1-13.2-3.8,101.8,101.8,0,0,1-13-6.1l-2.2-1.3A79.5,79.5,0,0,1,38.9,156a71,71,0,0,1-9.4-10.3l1.5,1.2a111.1,111.1,0,0,1-12.1-19,84.4,84.4,0,0,1-8.2-26.8A82.1,82.1,0,0,1,12.2,72,89.8,89.8,0,0,1,24.5,43.4a88.9,88.9,0,0,1,21.6-23,95.2,95.2,0,0,0-18.5,19l-1.9,2.4L24,44.3c-.5.8-1.1,1.6-1.6,2.5l-1.5,2.5,1.6-2.6.8-1.2.8-1.3a22,22,0,0,0,1.7-2.5l1.8-2.3A92.6,92.6,0,0,1,43.8,23.1a161.3,161.3,0,0,1,17-11.6,24.1,24.1,0,0,0,2.5-.8A101.3,101.3,0,0,1,75.8,6.6C80,5.5,84.1,4.8,87.9,4c-.1-.2,3.8-.5,2.5-.7l1.5-.2h10.8l6.2.5,3,.4,1.5.2,1.5.2,2.5.4,2.5.4,5,.9a92.1,92.1,0,0,1,61.4,58,86.3,86.3,0,0,1,4.5,24.2,95.4,95.4,0,0,0-9.7-33.9c-4.7-10.6-11.4-19.7-18.4-25.5l-2.4-2.1-2.4-2a93.8,93.8,0,0,1,23.2,29.6A98,98,0,0,1,187.3,74c0-.1-.1-.2-.1-.4a95.6,95.6,0,0,0-5.3-15.3A91.9,91.9,0,0,0,175.2,45a65,65,0,0,0-8.3-10.6,14.5,14.5,0,0,0-2.2-2.1,45.8,45.8,0,0,0-4.6-4.2A92.7,92.7,0,0,1,175,45.7a102.7,102.7,0,0,1,6.9,12.6,86.3,86.3,0,0,1,2.8,8.6,2,2,0,0,0-.4-.8,20.5,20.5,0,0,0-2.9-4.8c-1.2-1.4-2.1-1.9-1.7,0a92.4,92.4,0,0,1,6.2,30.3,97.8,97.8,0,0,1-.4,11.7,17.8,17.8,0,0,1-.5,3.3c0,.4-.1.7-.1.9a.6.6,0,0,1-.1.4c-.1.1-.1-.3-.1-1.1s.2-2,.2-3.5.2-3.2.2-5.1a58.6,58.6,0,0,0-.1-5.9c-.3-8.1-2.1-16-2.1-15.3s.3,1.8.4,2.8l.2,2.7a35.1,35.1,0,0,0-1.2-4.9c-.2-.9-.3-1.9-.6-2.9s-.5-2.1-.7-3a31.3,31.3,0,0,0-1.6-4.9c-1.8-4-3.7-8.3-6-12.5a63.9,63.9,0,0,0-8.1-12.1c-1-1.2-2.2-2.3-3.3-3.5l-3.7-3.5a91.8,91.8,0,0,0-8.5-6.6c-.1.2-.8-.4-1.4-.8s-1.2-.7-.8-.2a45,45,0,0,0-4.2-3l-2.1-1.4L139.2,22a25.2,25.2,0,0,0-3.8-1.8,8.4,8.4,0,0,0-3-.8l-.4-.2-1.7-.7a51.8,51.8,0,0,0-14-4.3,76,76,0,0,0-13.7-1.1,88.7,88.7,0,0,0-10.3.1h10.3a105,105,0,0,1,12.7,1.4,81.1,81.1,0,0,1,12.2,3.3l2.8.7,1.6.8h.5a81.3,81.3,0,0,1,20.7,12.7,67.9,67.9,0,0,1,7.2,7,83.9,83.9,0,0,1,6.2,8.2,82.5,82.5,0,0,1,8.8,18.5,76,76,0,0,0-9.4-17.3c1.2,1.7,2.2,3.4,3.2,5s2,3.4,2.8,5.2a72,72,0,0,1,4.4,10.4c.3,1.1.7,2.2.9,3.3l.8,3.5c.4,1.8.7,3.5.7,3.5s-.3-2.2-.5-3.3l-.6-3.2a96.8,96.8,0,0,1,2.7,13,80.6,80.6,0,0,1-24.4,67.4l.8-1.7a76.8,76.8,0,0,0,10.7-13.7,58.9,58.9,0,0,0,6.5-14.4c-1.3,3.2-2.4,5.8-3.7,8.3l-2,3.8-1.2,1.9-1.3,2c-.1,0-.2-.1,0-.6a67.3,67.3,0,0,1-8.2,11.1c.7-1.5,1.5-3,2.2-4.6s1.5-2.2,2.4-3.5l1.4-2.1c.5-.8,1-1.5,1.4-2.3a79.4,79.4,0,0,0,5.4-9.9c.8-1.6,1.5-3.4,2.2-5.1s1.3-3.4,1.8-5.2a75.8,75.8,0,0,0,3.4-21.8,76.8,76.8,0,0,0-1.6-19.7,84.9,84.9,0,0,0-6.3-18.6,86,86,0,0,1,6.9,17.5A83.6,83.6,0,0,1,179.5,92.4Zm-72.8,77.5-1.7.4-1.8.2h.6A11.2,11.2,0,0,0,106.7,169.9Zm-26.1-1.3a56,56,0,0,0,12.9,1.7,78.7,78.7,0,0,0,14.5-1.1V169a91.7,91.7,0,0,1-13.3.9A75.8,75.8,0,0,1,80.6,168.6ZM54.7,153.5h0ZM40.9,35.9A103.1,103.1,0,0,0,31.8,48a74.3,74.3,0,0,0-7.5,14.9c-1.3,3.2-1.8,6.6-2.8,10.9a59.4,59.4,0,0,0-1.1,7.1c-.1,1-.1,2-.2,3.1s-.1,2-.1,3.1a1.8,1.8,0,0,1,.1-.5,5.2,5.2,0,0,1,.2-1.1,15.4,15.4,0,0,0,.3-1.6,47.2,47.2,0,0,0-.1,9.9c.1,1.5.2,3,.4,4.6l.3,2.5a24.5,24.5,0,0,1,.2,2.7c.2,0,.7,1,.9,2.1,1.1,5.3,2.4,10.7,4.3,14.6a62.7,62.7,0,0,0,7.5,13.2,47,47,0,0,0,3.6,4l2.6,3,2.6,2.9c0-.2-.1-.3-.1-.4l-2.1-2.4c-.8-.7-1.4-1.6-2.2-2.4a68.4,68.4,0,0,1-11-17.1,79.5,79.5,0,0,1-5.4-46,85.2,85.2,0,0,1,2.3-9.7,66.4,66.4,0,0,1,6.3-14.5c2.6-4.5,5.5-8.4,7.3-11.3l1.4-1.9C40,37,40.6,36.4,40.9,35.9Zm5.3-14.6A100.4,100.4,0,0,0,20.5,52a58.2,58.2,0,0,0-4,9.3,70.8,70.8,0,0,0-3.1,11.8,48.3,48.3,0,0,0-.6,9.3c.2,2.2.6,3,1.2,1.9-.7-3-.3-9.7,1.9-17.4A78.3,78.3,0,0,1,27.3,43.2a103.5,103.5,0,0,1,8-9.7l3.8-3.9c1.3-1.1,2.3-2.2,3.4-3.1l2.6-2.4,1.7-1.7C47.5,21.5,47.4,21.1,46.2,21.3ZM147,16.9a119.6,119.6,0,0,0-15.2-7.5A85.9,85.9,0,0,1,147,16.9ZM94.4,9.1l6-.4c2,0,4,0,6,.2s4.1.4,6.1.6l6.1,1.1a95,95,0,0,1,11.8,3.7,55.5,55.5,0,0,1,5.6,2.4c1.9.9,3.7,1.7,5.4,2.7a73.3,73.3,0,0,1,15.2,11.5c4.5,4.4,8.5,9.1,12.1,13.4l.5-.3-.4-.5-.5-.4-1.7-2.6-1.7-2.4c-1.1-1.6-2.2-3-3.4-4.5.1.2.3.3.5.5l-.8-.8a37.9,37.9,0,0,0-5.7-5.6,40.8,40.8,0,0,0-3.3-2.5l-1.1-.9-1.2-.9-2.4-1.7c-1.7-1.1-3.3-2.2-5.1-3.2a78.8,78.8,0,0,0-10.5-5.2A85.8,85.8,0,0,0,121,9.9a67.9,67.9,0,0,0-10.7-1.7,71.3,71.3,0,0,0-12.2-.1c-2,.1-4,.4-6,.7L86,9.8l2-.2,2.2-.2h2.2Z" transform="translate(-10.1 -2.9)"/><path class="c" d="M48.1,126.3a6.9,6.9,0,0,1,1.9-2.5h.2a23.5,23.5,0,0,1,2.3-3.2c.5-.7.5-1.1.2-1.5s1.3-3,2.8-3.9a.2.2,0,0,1,.2-.2c.4-2.5,2.6-4.2,3.6-6.4s2.4-4.4,3.4-6.8,2.4-4.4,3.5-7c.2-.4.8-1.3.6-1.7a6.2,6.2,0,0,1,1.1-4C71.1,81,74.7,72.9,77,64.4c1.5-4.7,2.8-9.6,4.3-14.5a11.8,11.8,0,0,0,.4-2.8c0-.6-.4-.8-.9-.4a3.6,3.6,0,0,0-1.4,1c-2.6,2.4-5.4,4.5-7.9,7.1s-5.6,5.3-8.3,7.8a44,44,0,0,0-3.6,4.1,4.5,4.5,0,0,1-5.2,1.5,19.1,19.1,0,0,1-8.3-5.3c-.6-.7-.6-1.1.3-1.7a33,33,0,0,0,4.4-4.7A158.3,158.3,0,0,1,67.2,41.1c6.4-5.3,13-10.4,19.4-15.7a3.4,3.4,0,0,1,3.4-.9c1.9.5,3.6.2,5.5.9a18.9,18.9,0,0,1,4.7,2.8c1.3,1.2,1.7,2.7.7,4-2.4,3-2.8,6.8-4.1,10.2-1.5,5.3-2.7,10.7-4.5,16s-4.2,11.9-6.6,17.7a212.7,212.7,0,0,1-8.3,19.8c-.8,1.9-1.7,3.8-2.5,5.5-2.1,4.5-4.5,8.7-6.6,13.2-3.4,6.6-7.3,13-11.1,19.6a141.5,141.5,0,0,1-8.9,13.4c-1.5,1.7-2.6,3.8-4.3,5.3a15.7,15.7,0,0,1-11.3,4.5c-6.2,0-11-2.3-15.5-6.2l-1.1-.8c-2.1-1.1-2.8-3.2-3-5.3a23.9,23.9,0,0,1,1.7-10.7c.5-1.5,1.1-3,1.7-4.5a105.2,105.2,0,0,1,8.8-17A140.3,140.3,0,0,1,37,97.1c3-3.4,6.2-6.1,9.6-9.3a3.1,3.1,0,0,1,1.9-.9c1.3,0,7.2.5,8.1.9a10.6,10.6,0,0,1,1.7,1c1.7,1.5,1.7,3.2-.2,4.3a25.5,25.5,0,0,0-4.7,3.4,95.9,95.9,0,0,0-9.8,11.1c-3,4-6.2,8.1-8.5,12.5A83.6,83.6,0,0,0,27,138.2a26,26,0,0,0-1.1,6.2V147c.4,2.7,1.1,3,3.4,1.7s3.2-1.9,4.7-3h.6l.7-.6v-.9l.2.2a10.3,10.3,0,0,1,3.8-4.7,5.6,5.6,0,0,0,2.6-3.4v-.2a.7.7,0,0,0,1-.4,20,20,0,0,0,2-3.8,5.5,5.5,0,0,1,2.3-3.2H47c.2,0,.2,0,.2-.3s0-.4-.2-.4h.2a2.1,2.1,0,0,1,1.1-1.7v-.2Z" transform="translate(-10.1 -2.9)"/><path class="c" d="M101,91.9a1.2,1.2,0,0,0,.2.5c.7.2.7.7.4,1.4a3,3,0,0,1-.5,1.6c0,1.2.5,1.7,1.4,1.5l8.3-1h.7a23.7,23.7,0,0,1,6.4-1,27.4,27.4,0,0,1,6.9-1c1.4,0,2.8-.7,4.2-.9a47.2,47.2,0,0,0,6.9-1.2,10.1,10.1,0,0,0,3.1-1.6,1.1,1.1,0,0,1,1.7.3,6.1,6.1,0,0,0,.7,1c1.6,2.4,1.7,5.2,3.1,7.6s-.1,2.9.3,4.3-.2.4-.2.7a5,5,0,0,1-2.2,1.1,66.2,66.2,0,0,1-9.9.9,13.1,13.1,0,0,0-5.7,1.3l.2-.3c-1.9-.5-3.5.2-5.2.6s-6.1.6-9.2,1.2-8.3,1.4-12.6,2a4.2,4.2,0,0,0-1.9.9c-1,1.1-2.4,1.3-3.8,1.5a16.7,16.7,0,0,0-3.3.2c-1.9.4-3.3-.8-4.2-2.3s-1.2-1.6-1.9-2.6a2.3,2.3,0,0,1-.6-2.1,29.9,29.9,0,0,0-.4-4.3A2.3,2.3,0,0,1,85,99.7a5.5,5.5,0,0,0,2.2-3.2,3.7,3.7,0,0,1,1.2-2.6c.5-.2.5-1.1.8-1.6a5.2,5.2,0,0,1,1.2-3c.8-1,.3-1.9.8-2.9-1.8-1-.2-1.6.3-2.3a6,6,0,0,0,.8-2.1,4.1,4.1,0,0,1,1-2.1c0-.5.5-1.2.5-1.4-.6-2.6,1.3-4.5,1.8-6.8,1-.7,1-1.9.8-3.1a10.2,10.2,0,0,1,.8-2.5L98,64a6.3,6.3,0,0,1,.8-2.9c.7-.9.7-2.3,1.2-3.5s1.1-3.9,1.8-5.8,1.1-3.8,1.8-5.4a1.1,1.1,0,0,0,.1-1.2c-.3-.5-.3-.5,0-.9a15.7,15.7,0,0,0,2.3-6.1h-.2c.9-.7.7-1.9,1.2-2.8s1.2-2.1.6-3.1.3-2.8,1.3-3.9v.7c0-.3,0-.5.3-.5s.7-.4.7-1.2-.2-.9.3-1.4,1.5-2.1.8-3.5a5.1,5.1,0,0,1,1.5-3c.7-.7,1.2-1.4.5-2.4s.1-3.3,2-3.9v0a2.1,2.1,0,0,1-.4-1.9,16,16,0,0,0,.8-4.7c.1-.7.5-1,1.5-.7,3.3.8,6.8,1.6,9.1,4.5,1.1.5.9,1.4.8,2.4a10.7,10.7,0,0,1-1,4.7,14.8,14.8,0,0,0-2.1,5.4,4.1,4.1,0,0,1-.5,1.8c-.7,1.2-1.7,2.3-1.5,3.8s-.5.7-.7,1.1-1,1.9-1.3,2.8c-.6,3.1-2,5.9-2.8,8.7s-2.6,7.7-3.9,11.7l-2.3,5.6a39.2,39.2,0,0,0-1.3,4.9,7.4,7.4,0,0,1-.8,2.4c0,.2-.2.4-.2.7-.5,2.1-1.3,4.2-1.8,6.5a1.9,1.9,0,0,0,.2,1.2c.2.3,0,.5-.3.7s-1,1.9-1.3,3a26.4,26.4,0,0,1-1.5,5c-.9,2.3-2,5-1.7,6m2.2-41.4v0Z" transform="translate(-10.1 -2.9)"/><path class="c" d="M163.7,62.4l-.3-.9a1.6,1.6,0,0,1-.3-.9.5.5,0,0,0-.2-.4.6.6,0,0,0-.6,0l-.8.6c-1.2,1.1-2.4,2.3-3.5,3.5a38.7,38.7,0,0,0-3.2,3.7l-2.7,3.6-2.8,3.6-.5.7a.8.8,0,0,1-.7.4.6.6,0,0,1-.3-.6,1.1,1.1,0,0,0,0-.8,7.7,7.7,0,0,1-.2-1.5V71.9a2.5,2.5,0,0,0-.1-.8,2.2,2.2,0,0,0-.1-.8,7.7,7.7,0,0,0-.2-1.5,1.7,1.7,0,0,1,0-1.4,3,3,0,0,1,.9-1.3,5.7,5.7,0,0,0,1.1-1.1,15.4,15.4,0,0,0,2.1-2.9,9.2,9.2,0,0,0,1.2-3.4,4.5,4.5,0,0,0,.1-1.1,2.4,2.4,0,0,0-.6-1.1.9.9,0,0,1-.3-.6,6.4,6.4,0,0,1-.2-.7,1.3,1.3,0,0,0-.7-.6,1.2,1.2,0,0,0-.8.4l-2,1.8a11.9,11.9,0,0,0-2,1.9l-.2.2a.2.2,0,0,0-.2.2.6.6,0,0,1-.9,0c-.1-.3-.4-.5-.6-.8l-1.3-1a2.8,2.8,0,0,0-1.6-.1h-2.7l-.8.3a.9.9,0,0,0-.5.9c.1.1.1.3.2.4l.2.5c.3.9.5,1.8.8,2.7l.6,2.7a3.3,3.3,0,0,1,0,1.4,12.7,12.7,0,0,1-1.3,1.9,3.7,3.7,0,0,0-.8,1.5c-.7,1.2-1.3,2.5-1.8,3.2s-2.4,2.4-3.8,4.5l-1.8,2.6h0a23.4,23.4,0,0,1,.9-3.8,27.8,27.8,0,0,0,1.2-3.8A5.6,5.6,0,0,1,132,71c.1-.4.3-.8.4-1.2s.5-1.7.7-2.4a21.7,21.7,0,0,1,.7-2.4l.3-1.2.3-1.1a2.2,2.2,0,0,0-.2-1.8,1.9,1.9,0,0,0-1.6-.7h-.9a2.1,2.1,0,0,0-1,.6l-.8.7c-.2.2-.4.1-.6-.1a5.9,5.9,0,0,0-2.8-1.5,7,7,0,0,0-3.2.2l-.4.2-.4.2a13.2,13.2,0,0,0-8.1,7.4l-2.2,5.1c-.7,1.6-1.3,3.4-1.9,5.1a8.6,8.6,0,0,0-.5,2.7,22.5,22.5,0,0,0,0,2.6,5.3,5.3,0,0,0,1.9,3.5,4.2,4.2,0,0,0,1.6,1.1l1.7.7a3.9,3.9,0,0,0,3.3-.3l1.2-.7a4.1,4.1,0,0,1,1.1-.7.8.8,0,0,0,.4-.4l.4-.4.8-1.3.6-1.5.4-.2.3.2a5.1,5.1,0,0,0,2.7,2.5h.3l.3.2a4.1,4.1,0,0,0,2.2,0,4.8,4.8,0,0,0,1.9-.9l1.4-1.2,1.2-1.3,2.7-2.9c.8-1,1.7-1.9,2.6-2.9l.4-.6a.9.9,0,0,1,.6-.3.5.5,0,0,1,.4.6,1.7,1.7,0,0,0-.1.7v1a5.2,5.2,0,0,0,.7,2.3,4.7,4.7,0,0,0,1.9,1.8,8,8,0,0,0,5.1,1,6.9,6.9,0,0,0,4.9-3,37.1,37.1,0,0,1,2.3-3.2l2.5-3.3,1.4-2.1,1.5-2.2,1.5-2.2a9.2,9.2,0,0,0,1.3-2.4,5.8,5.8,0,0,0,.5-1.4A3.8,3.8,0,0,0,163.7,62.4ZM129.5,79.8Zm-3.7-9.4-1.2,2.8v.5l-.2.4a16.9,16.9,0,0,0-1.7,2.9,17.7,17.7,0,0,1-1.5,3.1,13,13,0,0,1-4.5,4.8h-.5a.5.5,0,0,1-.2-.4c0-.8.1-1.5.1-2.3a9,9,0,0,1,.6-2.2l.9-2.3c.3-.7.5-1.5.8-2.4a5.6,5.6,0,0,1,.4-1.2l.6-1.2a31.2,31.2,0,0,1,1.5-3.9l1.9-3.8a4.7,4.7,0,0,0,.5-1,2,2,0,0,1,.9-.9l.7-.3a.9.9,0,0,1,.6.3,6.9,6.9,0,0,1,1.1,1.3,5.8,5.8,0,0,1,.6,1.7V67l-.3.5C126.5,68.5,126.1,69.4,125.8,70.4Z" transform="translate(-10.1 -2.9)"/><path class="c" d="M83.2,147.3c-.2-.3-.7-.4-.5-.8a3.8,3.8,0,0,1,1.8-1.1,3.4,3.4,0,0,0,1.9-.9l-.3-.6a35.8,35.8,0,0,1,3.5-1.1,26.8,26.8,0,0,1,2.8-1.8l1.4-.9,1.3-.8a.7.7,0,0,1-.1-.6l1.4-.6.8-.3.9-.2.5-.3a.5.5,0,0,0,0-.5l1.6-.4a91.4,91.4,0,0,1,20.6-7.7,31.7,31.7,0,0,1,4.9-1.7h4l4,.3c-.4-2.4,5.5-3.4,4.4-5.7,1.6.1,4.1.3,4.2-.4s1.9-4.1,6.4-5c1.8-.1,4.4.9,5.2.6a.2.2,0,0,0,.1-.4c-.1-.2-.5-.4-.8-.6s-1.1-.8-.5-1.1a127.1,127.1,0,0,0-19.4-1.2c-6.4.1-12.9.5-19.6,1.2-2.3.9-11,2-20.5,5.3a52.6,52.6,0,0,0-7,3c-1.2.5-2.1,1.1-3.1,1.6l-2.9,1.6c-1.8,1.1-3.5,2.1-4.9,3.1l-1.9,1.3-1.5,1.1-.6.5c-3.7,2.7-7.6,6.8-9.4,10.4a34.6,34.6,0,0,0-1.9,5.4,15.8,15.8,0,0,1,2.3-1.1c-1.2,1.3-2.2,2.8-2.2,3.6-1.2,3.8,1,2.5,3,2.2s1.3,1.2,2.7.3l-1.5,2.2c.3.2.6-.5,1-1.1s.8-1.2,1-.6-1,1.8-1.5,2.7,2.1-2.8,2.7-2.2-2.5,1.8-1.6,2.5.7-.7.9-1.1c-.6,1.4-.9,2.6-.6,3.1s.8.6,1.9-.2a9.4,9.4,0,0,1-.9,1.2,3,3,0,0,0-.6,1.1h0v-.2l.3-.3.4-.7-.6,1.3h.5l.7-.9a5.6,5.6,0,0,1-.5.8l1.3-.2c1.1-.7,2.6-1.2,2.9-1.7a72.3,72.3,0,0,1,5.3-5.9l3-2.8Z" transform="translate(-10.1 -2.9)"/><polygon class="d" points="118.5 137.7 119.4 137.7 119.4 135.8 119.3 135.8 118.5 137.7"/><polygon class="d" points="117.8 133.7 113.1 133.7 117.6 134.1 117.8 133.7"/><path class="d" d="M146.4,138.2l-.2.4v.2l.6.4h.2c.1,0,.2,0,.2-.2l.2-.9h-1Z" transform="translate(-10.1 -2.9)"/><path class="d" d="M146,140.8l-.2.2-.2,1h1l.2-.4v-.3l-.6-.3Z" transform="translate(-10.1 -2.9)"/><path class="d" d="M154.6,140.7l-.3.4v.9h.9a.5.5,0,0,0,.2-.4l.2-.9h-.9Z" transform="translate(-10.1 -2.9)"/><path class="d" d="M116.3,148.3c-.1,0-.2.1-.2.3l-.4,2.3h1.1c.1,0,.2-.1.2-.3l.4-2.3h-1.1Z" transform="translate(-10.1 -2.9)"/></svg>