<svg xmlns="http://www.w3.org/2000/svg" viewBox="0 0 149.8 154.8"><path class="a-logo" d="M35,120.5a10.2,10.2,0,0,1,1.9-2.5h.3a23.5,23.5,0,0,1,2.3-3.2c.4-.7.4-1.1.2-1.5s1.3-3,2.8-3.9a.2.2,0,0,1,.2-.2c.4-2.5,2.6-4.2,3.6-6.4s2.4-4.4,3.4-6.8,2.4-4.4,3.4-7c.2-.4.9-1.3.7-1.7a6.8,6.8,0,0,1,1-4C58,75.2,61.7,67.1,64,58.5c1.5-4.6,2.8-9.5,4.3-14.4a11.8,11.8,0,0,0,.4-2.8c0-.6-.4-.8-.9-.4a4.9,4.9,0,0,0-1.5,1c-2.5,2.4-5.3,4.5-7.8,7.1s-5.6,5.3-8.3,7.8-2.6,2.8-3.7,4.1a4.4,4.4,0,0,1-5.1,1.5,18.6,18.6,0,0,1-8.3-5.3c-.6-.7-.6-1.1.2-1.7a33.6,33.6,0,0,0,4.5-4.7A148.8,148.8,0,0,1,54.2,35.3c6.4-5.3,13-10.4,19.4-15.7a3.3,3.3,0,0,1,3.4-.9c1.9.5,3.6.2,5.5.9a22,22,0,0,1,4.7,2.7c1.3,1.3,1.7,2.8.6,4.1-2.3,3-2.7,6.8-4,10.2-1.5,5.3-2.8,10.7-4.5,16s-4.2,11.9-6.6,17.7a212.7,212.7,0,0,1-8.3,19.8c-.8,1.9-1.7,3.8-2.5,5.5-2.2,4.5-4.5,8.7-6.6,13.2-3.4,6.6-7.3,13-11.1,19.6a156.6,156.6,0,0,1-9,13.4c-1.4,1.7-2.5,3.8-4.2,5.3a15.7,15.7,0,0,1-11.3,4.5c-6.2,0-11.1-2.3-15.5-6.2-.5-.2-.7-.6-1.1-.8-2.1-1.1-2.8-3.2-3-5.3a22.6,22.6,0,0,1,1.7-10.7,41.3,41.3,0,0,1,1.7-4.5,104.7,104.7,0,0,1,8.7-17A154.5,154.5,0,0,1,24,91.3,119.6,119.6,0,0,1,33.5,82a3.1,3.1,0,0,1,2-.9c1.2,0,7.2.4,8.1.9a10.6,10.6,0,0,1,1.7,1c1.7,1.5,1.7,3.2-.3,4.3a18.9,18.9,0,0,0-4.6,3.4,80.2,80.2,0,0,0-9.8,11.1A106.6,106.6,0,0,0,22,114.3a83.2,83.2,0,0,0-8,18.1,26,26,0,0,0-1.1,6.2v2.6c.4,2.7,1.1,3,3.4,1.7s3.2-1.9,4.7-3h.6l.7-.6v-.9l.2.2a10.3,10.3,0,0,1,3.8-4.7,6,6,0,0,0,2.6-3.4v-.2a.7.7,0,0,0,1-.4c.7-1.3,1.7-2.6,1.9-3.8a6.1,6.1,0,0,1,2.4-3.2H34c.2,0,.2,0,.2-.3s0-.4-.2-.4h.2a2.2,2.2,0,0,1,1-1.7v-.2Z"/><path class="a-logo" d="M87,86.1a1.2,1.2,0,0,0,.2.5c.7.2.7.7.4,1.4a4.3,4.3,0,0,1-.5,1.6c0,1.2.4,1.7,1.4,1.5l8.3-1h.7a23.1,23.1,0,0,1,6.4-1,27.4,27.4,0,0,1,6.9-1c1.4,0,2.8-.7,4.2-.9a47.2,47.2,0,0,0,6.9-1.2,10.1,10.1,0,0,0,3.1-1.6,1.1,1.1,0,0,1,1.7.3l.6,1c1.6,2.4,1.8,5.2,3.1,7.6s0,2.8.4,4.3-.2.4-.3.7a4.3,4.3,0,0,1-2.1,1.1,66.4,66.4,0,0,1-10,.9,13.8,13.8,0,0,0-5.7,1.3l.3-.3c-1.9-.5-3.6.2-5.2.6s-6.2.6-9.3,1.2-8.3,1.4-12.5,2a3.8,3.8,0,0,0-1.9.9c-1,1.1-2.4,1.3-3.9,1.5a17.7,17.7,0,0,0-3.3.2c-1.9.4-3.3-.8-4.2-2.3a17.5,17.5,0,0,0-1.8-2.6,2.3,2.3,0,0,1-.6-2.1,29.9,29.9,0,0,0-.4-4.3,2.4,2.4,0,0,1,1-2.6,5.3,5.3,0,0,0,2.2-3.2,4.3,4.3,0,0,1,1.3-2.6c.5-.2.5-1.1.7-1.6a6.8,6.8,0,0,1,1.3-3.1c.7-.9.3-1.8.8-2.8-1.9-1-.2-1.6.3-2.3a9,9,0,0,0,.8-2.1,4.1,4.1,0,0,1,1-2.1c0-.5.5-1.2.5-1.4-.7-2.6,1.3-4.5,1.8-6.8,1-.7,1-1.9.8-3.1a10.2,10.2,0,0,1,.8-2.5l.7-2.1a7.9,7.9,0,0,1,.8-2.9c.8-.9.8-2.3,1.3-3.5s1.1-4,1.8-5.8,1.1-3.8,1.8-5.4.3-.9,0-1.2-.2-.5.1-.9A15.7,15.7,0,0,0,92,32.4h-.3c1-.7.8-1.9,1.3-2.8s1.2-2.1.5-3.1.4-2.8,1.3-3.9v.7c0-.3,0-.5.3-.5s.7-.5.7-1.2-.2-.9.3-1.4,1.4-2.1.8-3.5a4.6,4.6,0,0,1,1.5-3c.7-.7,1.2-1.4.5-2.4s.1-3.3,2-3.9v0a1.7,1.7,0,0,1-.4-1.9,16,16,0,0,0,.8-4.7c0-.7.5-1,1.5-.7,3.2.8,6.8,1.6,9,4.5,1.2.5.9,1.4.9,2.4a10.7,10.7,0,0,1-1,4.7,14.8,14.8,0,0,0-2.1,5.4,4.1,4.1,0,0,1-.5,1.8c-.7,1.2-1.7,2.3-1.5,3.8s-.5.7-.8,1.1-1,1.9-1.2,2.8c-.6,3.1-2.1,5.9-2.9,8.7S100.2,43,98.9,47l-2.3,5.6a39.2,39.2,0,0,0-1.3,4.9,11,11,0,0,1-.8,2.4,1.4,1.4,0,0,0-.2.7c-.6,2.1-1.3,4.2-1.9,6.5a3,3,0,0,0,.2,1.2c.3.2,0,.5-.2.7s-1,1.9-1.3,3a26.4,26.4,0,0,1-1.5,5c-.9,2.3-2,5-1.8,6m2.3-41.4v0Z"/><path class="a-logo" d="M149.7,56.6a3.6,3.6,0,0,0-.4-.9,2.9,2.9,0,0,1-.2-.9c0-.2-.1-.3-.3-.4a.5.5,0,0,0-.5,0l-.8.6L144,58.4a37.9,37.9,0,0,0-3.2,3.8L138,65.8l-2.7,3.6-.5.7a.8.8,0,0,1-.7.4.4.4,0,0,1-.3-.6,2.1,2.1,0,0,0,0-.8,3.9,3.9,0,0,1-.2-1.5V66.1a2.5,2.5,0,0,0-.1-.8c0-.3-.1-.5-.1-.8a7.7,7.7,0,0,0-.2-1.5,1.7,1.7,0,0,1,0-1.4,3,3,0,0,1,.9-1.3,11.4,11.4,0,0,0,1.1-1.1,15.4,15.4,0,0,0,2.1-2.9,11.4,11.4,0,0,0,1.2-3.4,2,2,0,0,0,0-1.1,1.6,1.6,0,0,0-.5-1.1.9.9,0,0,1-.3-.6,6.4,6.4,0,0,1-.2-.7,1.3,1.3,0,0,0-.7-.6,1,1,0,0,0-.8.4L134,51a17.1,17.1,0,0,0-2,1.8c0,.1-.1.2-.2.3a.2.2,0,0,0-.2.2.6.6,0,0,1-.9,0l-.6-.8-1.3-1a2.9,2.9,0,0,0-1.6-.1h-2.7l-.8.3a.9.9,0,0,0-.5.9c.1.1.1.3.2.4s.1.3.1.5l.9,2.7.6,2.7a3.1,3.1,0,0,1-.1,1.4,5.9,5.9,0,0,1-1.3,1.9,3.4,3.4,0,0,0-.7,1.5c-.7,1.2-1.3,2.5-1.8,3.2s-2.5,2.4-3.8,4.5L115.5,74h0a23.4,23.4,0,0,1,.9-3.8,27.2,27.2,0,0,0,1.1-3.8,5.6,5.6,0,0,0,.4-1.2,5.6,5.6,0,0,0,.4-1.2c.3-.9.6-1.7.8-2.4l.6-2.4a5.6,5.6,0,0,0,.4-1.2l.3-1.1a1.9,1.9,0,0,0-.3-1.8,1.8,1.8,0,0,0-1.6-.7h-.9a2.4,2.4,0,0,0-.9.6l-.8.7c-.2.2-.4.1-.7-.1a5.6,5.6,0,0,0-2.7-1.5,7,7,0,0,0-3.2.2l-.5.2-.4.2a13.3,13.3,0,0,0-8,7.4l-2.2,5.1c-.7,1.6-1.3,3.4-1.9,5.1a8.6,8.6,0,0,0-.5,2.7,11.3,11.3,0,0,0,0,2.6,5.7,5.7,0,0,0,1.8,3.5,5.1,5.1,0,0,0,1.6,1.1l1.8.7a3.9,3.9,0,0,0,3.3-.3l1.1-.7,1.2-.7a.8.8,0,0,0,.4-.4l.3-.4a10.1,10.1,0,0,0,.9-1.3l.6-1.5.4-.2.3.2a5.1,5.1,0,0,0,2.7,2.5h.3l.2.2a4.1,4.1,0,0,0,2.2,0,5.2,5.2,0,0,0,2-.9l1.3-1.2,1.3-1.3c.9-1,1.7-2,2.6-2.9l2.7-2.9.4-.6.6-.3a.5.5,0,0,1,.4.6,1.7,1.7,0,0,0-.1.7v1a5.6,5.6,0,0,0,.7,2.3,5.2,5.2,0,0,0,1.8,1.8,7.6,7.6,0,0,0,5.1.9,6.3,6.3,0,0,0,4.9-2.9l2.4-3.2,2.4-3.3,1.5-2.1,1.5-2.2,1.5-2.2a13.6,13.6,0,0,0,1.3-2.4,5.8,5.8,0,0,0,.5-1.4A3.8,3.8,0,0,0,149.7,56.6ZM115.5,74Zm-3.8-9.4c-.3.9-.7,1.9-1.1,2.8s-.1.3-.1.5l-.2.3a15.2,15.2,0,0,0-1.7,3l-1.5,3.1a12,12,0,0,1-4.5,4.7h-.5a.5.5,0,0,1-.2-.4,17.7,17.7,0,0,1,.1-2.3,9,9,0,0,1,.6-2.2l.9-2.3a16.8,16.8,0,0,0,.7-2.4,6.1,6.1,0,0,1,.5-1.2,6.1,6.1,0,0,0,.5-1.2c.5-1.3,1-2.6,1.6-3.9l1.9-3.8c.2-.3.3-.7.5-1a2,2,0,0,1,.9-.9l.7-.3.6.3a6.9,6.9,0,0,1,1.1,1.3,3.7,3.7,0,0,1,.5,1.7.8.8,0,0,1,0,.7.8.8,0,0,1-.2.5C112.5,62.7,112.1,63.6,111.7,64.6Z"/><path class="a-logo" d="M70.2,141.5c-.2-.3-.7-.4-.5-.8a3.4,3.4,0,0,1,1.8-1.1,3.4,3.4,0,0,0,1.9-.9l-.3-.6a28.9,28.9,0,0,1,3.5-1.1,26.8,26.8,0,0,1,2.8-1.8l1.4-1,1.3-.7a.7.7,0,0,1-.1-.6l1.3-.6.9-.3.9-.2.5-.3c.1-.1,0-.4,0-.5l1.6-.4a89.6,89.6,0,0,1,20.6-7.7,31.7,31.7,0,0,1,4.9-1.7h4l3.9.3c-.3-2.4,5.6-3.4,4.5-5.7,1.6.1,4.1.3,4.2-.4s1.9-4.1,6.4-5c1.8-.1,4.3.9,5.1.6s.3-.3.2-.4l-.8-.6c-.5-.4-1.1-.8-.5-1.1a127.9,127.9,0,0,0-19.4-1.2c-6.5.1-12.9.5-19.6,1.2-2.3.9-11,2-20.5,5.3a69.1,69.1,0,0,0-7,2.9L70,118.7l-2.8,1.6c-1.8,1.1-3.5,2.1-4.9,3.1l-1.9,1.3-1.5,1.1-.6.5c-3.7,2.7-7.7,6.8-9.5,10.4a48.8,48.8,0,0,0-1.8,5.4l2.2-1.1c-1.1,1.3-2.1,2.8-2.1,3.6-1.2,3.8,1,2.5,3,2.2s1.3,1.2,2.7.3l-1.5,2.2c.3.2.6-.5,1-1.1s.7-1.2,1-.6-1,1.8-1.6,2.7,2.2-2.8,2.8-2.2-2.5,1.8-1.7,2.5.7-.7,1-1.1a4.8,4.8,0,0,0-.7,3.1c.2.6.8.6,2-.2l-.9,1.2c-.3.4-.7.9-.6,1.1h0v-.2c.1-.1.2-.2.2-.3l.5-.7a13,13,0,0,1-.6,1.2h.5a2.8,2.8,0,0,0,.6-.9l-.4.8,1.3-.2c1.1-.7,2.5-1.2,2.9-1.7a72.3,72.3,0,0,1,5.3-5.9l3-2.8Z"/></svg>
