<svg xmlns="http://www.w3.org/2000/svg" viewBox="0 0 854.5 204.6"><path class="lda" d="M110.1,79.2l1.3-2.5-.8.2Z"/><path class="lda" d="M44.4,1.6H20.1L6.5,65.8q12.4-5,26.4-9.7Z"/><path class="lda" d="M303.1,1.6H274.8l-3,14q17.2-1,34.9-1.6Z"/><path class="lda" d="M252.5,7.8c-5.6-4.1-13.6-6.1-24-6.1H204.4l-4.3,20.1q28.7-3.3,59-5.3A19.5,19.5,0,0,0,252.5,7.8Z"/><path class="lda" d="M354.8,1.6H333.1l-2.5,11.7,21.8-.3Z"/><path class="lda" d="M158.7,26.2A67.3,67.3,0,0,0,162.5,16c-.2,2.3-.2,5.1-.2,8.2v2.5l20.4-2.8L180.9,1.6H149.5l-15,29.6,23.7-3.9Z"/><path class="lda" d="M270.9,20l-5.6,26.5,21.7-2q.9-6.6,1.8-15.9h.5l4.3,15.3L315,42.3l-7-24.1Q289.2,18.9,270.9,20Z"/><path class="lda" d="M329.7,17.6l-4.7,22-.4,2.1,22-1.2,4.9-23.2Z"/><path class="lda" d="M253,47.8a26,26,0,0,0,3.5-4.5,31.8,31.8,0,0,0,4.4-16.9,31.2,31.2,0,0,0-.5-5.8l-25.4,2a8.4,8.4,0,0,1,1.5,5.2c0,4.1-1.2,7.3-3.5,9.5s-5.5,3.3-9.4,3.3h-3.2l3.5-17-24.8,2.6L193,55.9Q222.1,51.2,253,47.8Z"/><path class="lda" d="M185.5,57.1l-2.4-28.9L162.4,31l1,24.6H145.2L156.1,32l-24,4L113.9,71.6C136.5,66.1,160.4,61.2,185.5,57.1Z"/><path class="lda" d="M256.9,85.8,243.3,54.4l3-1.5q-27.9,3.2-54.3,7.5l-4.4,21-1.7-20c-26.2,4.4-51.1,9.5-74.5,15.3l-1.3,2.5.5-2.3q-13.7,3.4-26.7,7.2c-9.7,2.8-18.9,5.5-27.7,8.5h72.4l7.8-17h27.9l.6,17h44.7l7-33h4.5l12.1,33h43.9l8-38c.4-1.6.7-3.5,1.1-5.8l-22,2.1Z"/><path class="lda" d="M321.4,62.6h-.6l-4.7-16.1-21.4,1.6,12.5,44.5h28.3l10.1-47.7-21.9,1.2C323,50.6,322.2,56.1,321.4,62.6Z"/><path class="lda" d="M109.9,72.6H81.8l3.5-17H113l3.7-16.7q-20.8,4.1-40.1,9L61.8,51.8,57.4,72.6h-28L31.9,61q-14,4.8-26.4,9.9L.9,92.6H43.2c12.3-4,25.5-8.6,39.5-12.7Q95.9,76.1,109.9,72.6Z"/><path class="lda" d="M111.2,35.6H89.8l2.9-14h29.7l4-20h-54L62.8,47.1l12.7-3.4C87,40.8,99,38.1,111.2,35.6Z"/><path class="lda" d="M431.5,10.5c-6.3-6-15.2-8.9-26.6-8.9H379L376.6,13q28.9.2,58.4,1.5A28.2,28.2,0,0,0,431.5,10.5Z"/><path class="lda" d="M437.5,18.9q-31.3-1.4-61.9-1.6L371,39.5l24.5-.6,3.6-17.3h4.4c4,0,7.2,1.2,9.4,3.9s3.4,6.5,3.4,11.7v1.5h24.5c0-1,.1-1.9.1-2.9A39.2,39.2,0,0,0,437.5,18.9Z"/><path class="lda" d="M416.1,43a48.4,48.4,0,0,1-2.7,12.5c-2,5.4-4.8,9.7-8.4,12.6a19.1,19.1,0,0,1-12.2,4.5h-4.3l6.2-29.4-24.6.6L359.8,92.6h29.3c10.7,0,20-2.4,27.8-6.9a44.2,44.2,0,0,0,17.9-19.6A64.7,64.7,0,0,0,440.6,43Z"/><path class="lda" d="M518.1,24.3l-3.5,16.6L539,42.3l3.3-15.6Z"/><path class="lda" d="M509,23.5l-26.8-2.1.5.4a7.8,7.8,0,0,1,2.1,5.9c0,4.1-1.2,7.3-3.5,9.5a10.6,10.6,0,0,1-3.1,2.1l28.1,1.1a33.1,33.1,0,0,0,2.9-14.1C509.1,25.4,509.1,24.5,509,23.5Z"/><path class="lda" d="M449.1,19.5h-.2l-4.1,19.3h10.5l13.7.3,3.8-18.4Z"/><path class="lda" d="M505.1,85.7,491.6,54.4a28.3,28.3,0,0,0,12.3-9.8q-24.1-1.1-48.6-1.5H443.9L433.4,92.6h24.3l7-33h4.5l12.1,33h46.9L538,46.4,513.7,45Z"/><path class="lda" d="M547.6,1.6H522.9L519,20.1l24.2,2.4Z"/><path class="lda" d="M500.8,7.8c-5.6-4.1-13.6-6.1-24-6.1H452.7l-2.9,13.6q29.6,1.5,58.5,4A19.8,19.8,0,0,0,500.8,7.8Z"/><path class="lda" d="M618.8,36.7l-2.6,12.6L640,52.2l2.4-11.6Z"/><path class="lda" d="M660,43.7l-2.3,10.9,23.9,3.7,2.1-9.9Z"/><path class="lda" d="M571.8,38.6l1.8-8.3-23.8-2.8-3.2,15.3q25.6,1.8,50.6,4.3l1.8-8.6Z"/><path class="lda" d="M536,92.6h24.3l7-34h27.3l1.6-7.4q-24.9-2.5-50.6-4.3Z"/><path class="lda" d="M607.2,92.6h24.3l7.6-36.4-23.7-2.9Z"/><path class="lda" d="M649.7,92.6h24.7l6.4-30.3-23.9-3.7Z"/><path class="lda" d="M575.4,21.6H622l-2.3,10.9,23.5,3.9,3.1-14.8h18.4l-3.8,17.9,23.7,4.7,9-42.6H555.3l-4.6,21.7,23.8,2.8Z"/><path class="lda" d="M733.8,92.6h28.3l2.8-13.3q-18.1-4.4-37.2-8.3Z"/><path class="lda" d="M711.7,54.6,691.1,50l-2,9.6L710,63.3l1.8-8.6Z"/><path class="lda" d="M682,92.6h21.7l5.4-25.3-20.9-3.7Z"/><path class="lda" d="M723.9,57.5l2.5,9q20.2,4.1,39.3,8.8L767,69Q746.2,62.9,723.9,57.5Z"/><path class="lda" d="M715.3,28.6h.5l6.8,24.1,23.7,6L729.6,1.6H701.3L692,45.8l20.6,4.6C713.4,45.1,714.4,37.8,715.3,28.6Z"/><path class="lda" d="M781.3,1.6H759.7l-8.2,38c-1,5-2.1,11.3-3.1,19.7L768,64.8Z"/><path class="lda" d="M775.1,71.4a33.7,33.7,0,0,0,2.9,6.9q25.1,6.5,48,13.9l6.3-1.2L817,85.2C803.6,80.4,789.6,75.8,775.1,71.4Z"/><path class="lda" d="M781.6,83.6l.6.7q9,9.5,25.2,9.5c5.4,0,5.9-1.1,5.9-1.1Q798,87.9,781.6,83.6Z"/><path class="lda" d="M850.3,39.6h-38l-4.2,19h14.3l-3.2,14.2a41.7,41.7,0,0,1-8.3.8c-8.7,0-13-5.5-13-16.5a47.8,47.8,0,0,1,3.8-18.9q3.8-8.8,10.1-13.4a24.4,24.4,0,0,1,14.5-4.5,37.3,37.3,0,0,1,19,5.6l9.2-19.2Q843.2,0,826.6,0T798.9,7a48.6,48.6,0,0,0-18.8,20.4,64.9,64.9,0,0,0-6.8,30,55.6,55.6,0,0,0,.7,9.2c15.4,4.6,30.3,9.5,44.4,14.6q10.8,3.9,20.8,7.9l.8-.2Z"/><rect class="ldb" y="97.5" width="844.2" height="107.11"/><path class="ldc" d="M43.9,136.2c12.5,3.8,30.7,10.5,39.4,14.7L78,164c-9.8-5.2-23.9-10.6-34.1-14v26.6c0,2.6.5,9.2.9,13.1H30.1a102.1,102.1,0,0,0,.9-13.1V122.5a66.4,66.4,0,0,0-.9-11.4H44.8a102.2,102.2,0,0,0-.8,11.4Zm25-4.1a76.7,76.7,0,0,0-8.3-14.5l7.9-3.4c2.6,4,6.4,10,8.6,14.2Zm12.9-5.3A88.3,88.3,0,0,0,73,112.7l7.8-3.7a124.8,124.8,0,0,1,9,14Z"/><path class="ldc" d="M126,112a71,71,0,0,0-.3,7.2V151c0,2.4.1,6,.3,8.2H112.1c.1-1.8.5-5.5.5-8.3V119.2a64,64,0,0,0-.4-7.2Zm43.4-.8c-.2,2.6-.4,5.7-.4,9.4v18.6c0,20.2-4,28.9-10.9,36.6s-16,11.5-22.9,13.7l-9.9-10.4c9.4-2.2,17.3-5.7,23.1-11.9s7.6-14.1,7.6-28.8V120.6a66.3,66.3,0,0,0-.6-9.4Z"/><path class="ldc" d="M265.1,121.5a38.3,38.3,0,0,0-2.1,6.6c-2.2,9.2-6.3,23.8-14.1,34.3s-21.1,20.6-37.9,26l-10.3-11.3c18.6-4.3,29.3-12.5,36.9-22,6.2-7.8,9.8-18.5,11-26.6H204.8c-4.2,0-8.8.2-11.2.4V115.6c2.8.3,8.2.8,11.3.8h43.5a31.6,31.6,0,0,0,7.4-.8Z"/><path class="ldc" d="M340.5,162.6c-9.7-5.1-23.8-10.5-34-14v26.6c0,2.7.5,9.3.8,13.1H292.6a100.9,100.9,0,0,0,.9-13.1v-54a65.7,65.7,0,0,0-.9-11.4h14.7a102.5,102.5,0,0,0-.8,11.4V135c12.6,3.7,30.7,10.4,39.4,14.6Z"/><path class="ldc" d="M404.5,170.7c.2-2.7.3-7.1.4-11.1-6.9,3.8-10.6,7.4-10.6,12.1s4.4,6.6,13.6,6.6a142.6,142.6,0,0,0,26.5-2.7l-.4,12.1a258.2,258.2,0,0,1-26.4,1.5c-14.6,0-25.6-3.5-25.6-15.5s11.3-19.4,21.9-24.9a7.3,7.3,0,0,0-6.5-3.2c-5.3,0-11,3-14.6,6.4a119.7,119.7,0,0,0-8.7,10.3l-10-7.4c9.8-9,16.4-17.3,20.5-25.6h-1.1c-3.8,0-10.6-.2-15.7-.7v-11a119.6,119.6,0,0,0,16.4,1h4.5a51.9,51.9,0,0,0,1.9-10.6l12.2,1a87.1,87.1,0,0,1-2.3,9.2,215.2,215.2,0,0,0,26.4-2.7v10.9a304.1,304.1,0,0,1-30.4,2.4,56.9,56.9,0,0,1-5.4,9.4c2.4-1.2,7.4-1.9,10.5-1.9,5.7,0,10.4,2.4,12.4,7.3,4.8-2.3,8.8-3.9,12.6-5.6l10.3-4.8,4.7,10.8a98.9,98.9,0,0,0-11.1,4c-4.1,1.6-9.4,3.7-15.2,6.3.1,5.2.3,12.1.4,16.3Z"/><path class="ldc" d="M538.7,132c-2,13.9-5.2,25.4-10.2,35a43.1,43.1,0,0,0,16.7,15.7,43.7,43.7,0,0,0-7.7,9.8,50,50,0,0,1-15.9-15.2,61.1,61.1,0,0,1-19.9,15.4,47,47,0,0,0-6.4-10.2c8.9-4,15.3-9.2,20.2-16.1a105.9,105.9,0,0,1-6.4-19.1,70.9,70.9,0,0,1-4.3,6.5,56,56,0,0,0-6.2-5.7A100.6,100.6,0,0,1,485.4,161v2l17-1.4v9.6l-17,1.5v9.2c0,4.8-.8,7.3-4.2,8.9s-7.7,1.6-13.6,1.6a37.7,37.7,0,0,0-3.2-9.5h8.9c1.2,0,1.6-.3,1.6-1.3v-8l-17.7,1.6-1.1-10,18.8-1.4v-7.3h3.7c1.6-1.4,3.3-3,4.9-4.7h-6.7A96.5,96.5,0,0,1,462.2,162a69.2,69.2,0,0,0-7.5-8.6,84.5,84.5,0,0,0,9.9-5.7v-4.5h6c1.8-1.5,3.5-3.1,5.2-4.7h-19v-9.6h13.7v-6.3H459.9v-9.4h10.6v-8.6H481v8.6h9.1v6.4a92.4,92.4,0,0,0,5.9-12.7l10.4,2.9a113.9,113.9,0,0,1-9.8,19.1h5.9v6.4c4.1-8.8,7-19.6,8.7-30.7l11.4,1.7c-.9,5.3-2.1,10.5-3.4,15.4h25V132ZM481,128.8h3.1c1.5-2.1,2.9-4.1,4.2-6.3H481Zm12.1,13.7,3.3,2.6a47.2,47.2,0,0,0,4.5-6.8H489.8c-1.3,1.6-2.6,3.2-4,4.7h5.5ZM516.4,132a118.8,118.8,0,0,0,5.7,21.9,100.3,100.3,0,0,0,5-21.9Z"/><path class="ldc" d="M616,142.5c-4.2,3.7-13,11.7-15.2,14a9.7,9.7,0,0,1,3.5.8c2.7.8,4.4,2.8,5.7,6.3s1.7,6.1,2.5,8.5,2.9,4.3,6.6,4.3a96.6,96.6,0,0,0,18.3-1.6l-.8,12.2a136.4,136.4,0,0,1-18.3,1.3c-8.9,0-13.7-1.9-15.9-8-1-2.7-2.1-7.1-2.7-9.4s-3.1-4.5-5-4.5-3.9,1.5-6,3.8a232.8,232.8,0,0,0-16.7,19l-11-7.7a71.3,71.3,0,0,0,6.5-5.7c4.8-4.9,23.8-23.8,32.4-32.9-6.6.3-17.7,1.2-23.1,1.7-3.2.3-6,.8-8,1.1l-1.1-12.9c2.2.2,5.6.3,8.9.3s25.6-.9,33.3-2a30,30,0,0,0,5.3-1.1l6.9,7.8C619.7,139.5,617.7,141.2,616,142.5Zm2.8-29.8-1.5,11c-9.8-.8-27.2-2.8-38.3-4.7l1.8-10.8A372.3,372.3,0,0,0,618.8,112.7Z"/><path class="ldc" d="M718.4,184.7a70.7,70.7,0,0,0-18.8-12.9c.1,1.2.1,2.4.1,3.3,0,8-6,14.1-18.4,14.1-14.9,0-22.8-5.6-22.8-15.5s8.7-16,23.1-16l5.7.3c-.2-2.8-.3-5.7-.4-8.5h-4.8c-5.5,0-16.2-.5-22.4-1.2v-11c5.4,1,17.5,1.7,22.5,1.7h4.4v-9.7h-4.4a155.1,155.1,0,0,1-20.2-1.4V117.2a123.4,123.4,0,0,0,20.2,1.8h4.6v-4.2a37.2,37.2,0,0,0-.5-6.4H699a62.4,62.4,0,0,0-.7,6.6v3.7a195.7,195.7,0,0,0,22.2-2.3l.3,10.7c-6.1.6-13.7,1.3-22.6,1.8v9.7c9.4-.4,17.2-1.2,24.9-2.2v11c-8.4.9-15.6,1.6-24.7,1.9.2,3.5.4,7.3.7,10.8a72.1,72.1,0,0,1,26.1,14.1ZM687.7,168a49.8,49.8,0,0,0-7.6-.7c-6.6,0-10.2,2.5-10.2,5.7s3.3,5.7,9.7,5.7,8.2-1.5,8.2-6.9C687.8,170.9,687.8,169.6,687.7,168Z"/><path class="ldc" d="M821.3,130.5c-5.6-.3-14.4-.5-27-.5.1,4.7.1,9.8.1,13.8a23,23,0,0,1,3.5,12.9c0,12.1-7.2,27.6-29.9,34l-9.9-10c9.4-2,17.6-5.1,22.8-10.6a20.1,20.1,0,0,1-4.2.5c-7.2,0-16.1-5.7-16.1-17.1s8.5-17.4,18.6-17.4a22.4,22.4,0,0,1,3.7.3v-6.2c-14.1.2-28.5.8-40,1.4l-.3-11.3c10.6,0,27.6-.5,40.1-.7a24.1,24.1,0,0,0-.1-2.8,62.8,62.8,0,0,0-.8-8.1h13.6c-.3,1.5-.6,6.5-.7,8s-.1,1.7-.1,2.8h27Zm-42.5,29.8c3.9,0,7.3-2.9,6.1-11a6.7,6.7,0,0,0-6.1-3.3,7.2,7.2,0,1,0-1.7,14.3Z"/></svg>
