<svg xmlns="http://www.w3.org/2000/svg" viewBox="0 0 59 60"><path class="a-logo" d="M14.3,44.1a2.6,2.6,0,0,1,.7-1h.1l1-1.2c.2-.3.2-.4.1-.6s.5-1.1,1.1-1.5h.1a7.9,7.9,0,0,1,1.5-2.5c.4-.9.9-1.7,1.3-2.6A22.9,22.9,0,0,0,21.6,32c.1-.2.4-.5.3-.7a2.8,2.8,0,0,1,.4-1.5A77.9,77.9,0,0,0,26,20.3c.7-1.8,1.2-3.6,1.8-5.5a3.6,3.6,0,0,0,.2-1.1c0-.2-.2-.3-.4-.1s-.4.2-.6.4-2.2,1.7-3.2,2.7-2.3,2-3.4,3l-1.5,1.5a1.8,1.8,0,0,1-2,.6,7.7,7.7,0,0,1-3.4-2c-.3-.3-.3-.5.1-.7a10.2,10.2,0,0,0,1.8-1.8,62.8,62.8,0,0,1,6.7-5.9l7.8-6a1.5,1.5,0,0,1,1.4-.3,9.1,9.1,0,0,1,2.3.3,5.2,5.2,0,0,1,1.9,1.1A1,1,0,0,1,35.8,8c-1,1.1-1.2,2.6-1.7,3.9S33,16,32.3,18s-1.7,4.6-2.7,6.8a73.5,73.5,0,0,1-3.4,7.6l-1,2.1-2.7,5.1c-1.4,2.5-3,5-4.5,7.5a47.4,47.4,0,0,1-3.7,5.1,17.3,17.3,0,0,1-1.7,2.1A6.9,6.9,0,0,1,8,56a9.5,9.5,0,0,1-6.3-2.4c-.2,0-.3-.2-.4-.3a2.3,2.3,0,0,1-1.3-2,9.3,9.3,0,0,1,.7-4.1c.2-.6.5-1.2.7-1.7A42.2,42.2,0,0,1,5,38.9a54.9,54.9,0,0,1,4.8-6,44.9,44.9,0,0,1,3.9-3.6c.1-.2.5-.3.7-.3a16.1,16.1,0,0,1,3.3.3l.7.4c.7.6.7,1.2-.1,1.6a13.3,13.3,0,0,0-1.9,1.4,40.2,40.2,0,0,0-4,4.2A32.1,32.1,0,0,0,9,41.7a29.9,29.9,0,0,0-3.3,7A8.6,8.6,0,0,0,5.2,51v1c.2,1.1.5,1.1,1.4.7l1.9-1.2h.3l.3-.2v-.4h0a4.6,4.6,0,0,1,1.6-1.8,1.9,1.9,0,0,0,1-1.3h0a.4.4,0,0,0,.5-.1c.2-.5.7-1,.8-1.5a1.9,1.9,0,0,1,.9-1.2h-.1c.1,0,.1,0,.1-.1s0-.2-.1-.2h.1a.8.8,0,0,1,.4-.6h0" transform="translate(0 0)"/><path class="a-logo" d="M33.9,34.3a.1.1,0,0,0,.1.1c.3.1.3.3.2.6a1.9,1.9,0,0,1-.2.7c0,.4.2.6.6.5l3.4-.4h.2a12.8,12.8,0,0,1,2.7-.5,12.6,12.6,0,0,1,2.8-.5,13.6,13.6,0,0,0,1.7-.4,12.6,12.6,0,0,0,2.8-.5,5.4,5.4,0,0,0,1.3-.7c.2-.2.4-.2.6.1l.3.4c.7.9.8,2.1,1.4,3s0,1.1.2,1.7-.1.2-.1.3l-.9.4a27,27,0,0,1-4.1.5,5.3,5.3,0,0,0-2.3.6h.1a4.9,4.9,0,0,0-2.1.2l-3.8.6a41.7,41.7,0,0,1-5.1.9,2,2,0,0,0-.8.4,2.1,2.1,0,0,1-1.5.7H30a1.8,1.8,0,0,1-1.7-.9,7,7,0,0,0-.8-1,1,1,0,0,1-.3-.9,8.8,8.8,0,0,0-.2-1.6.9.9,0,0,1,.4-1.1c.5-.2.7-.7.9-1.3a1.6,1.6,0,0,1,.5-1c.2-.1.2-.5.3-.7a4.2,4.2,0,0,1,.4-1.2c.3-.3.1-.7.3-1.1s-.1-.7.1-.9a3.2,3.2,0,0,0,.3-.9c0-.3.2-.5.4-.8s.2-.5.2-.6.5-1.8.7-2.7.4-.7.3-1.2a3.8,3.8,0,0,1,.3-1l.3-.9a2.3,2.3,0,0,1,.2-1.1,5.8,5.8,0,0,0,.5-1.4,20.2,20.2,0,0,1,.7-2.3c.3-.7.4-1.5.7-2.2a.4.4,0,0,0,0-.5c-.1-.1-.1-.1,0-.3a4.6,4.6,0,0,0,.8-2.5h0c.3-.2.2-.7.4-1.1s.5-.8.2-1.2.1-1.1.5-1.6v.3c0-.1,0-.2.1-.2s.3-.2.3-.5a.5.5,0,0,1,.1-.5c.3-.5.6-.9.3-1.4a1.7,1.7,0,0,1,.6-1.2.8.8,0,0,0,.2-1c.1-.6,0-1.3.7-1.6h0a.6.6,0,0,1-.2-.7A6.3,6.3,0,0,0,38.8.3q0-.4.6-.3a6.6,6.6,0,0,1,3.8,1.7c.5.2.4.6.4,1a3.7,3.7,0,0,1-.4,1.8,5.8,5.8,0,0,0-.8,2.2,1.9,1.9,0,0,1-.2.7c-.3.5-.7,1-.6,1.5s-.2.3-.3.5-.3.7-.4,1.1-.8,2.3-1.1,3.5l-1.5,4.6a20.9,20.9,0,0,1-.8,2.3,11.7,11.7,0,0,0-.5,2,4.6,4.6,0,0,1-.3.9c0,.1-.1.2-.1.3s-.5,1.7-.7,2.6a1.1,1.1,0,0,0,.1.5c.1,0,0,.1-.1.2s-.4.8-.5,1.3a6.7,6.7,0,0,1-.5,1.9,6,6,0,0,0-.7,2.4m.5-16.4h0" transform="translate(0 0)"/><path class="a-logo" d="M58.9,19.7a.4.4,0,0,0-.1-.3.4.4,0,0,1-.1-.3c0-.1,0-.2-.1-.2h-.2l-.4.3-1.4,1.3a8.1,8.1,0,0,0-1.2,1.4l-1.1,1.3a13.4,13.4,0,0,0-1.1,1.4.2.2,0,0,0-.2.2l-.3.2c-.1-.1-.2-.1-.1-.2v-.3a1.3,1.3,0,0,1-.1-.6.9.9,0,0,1-.1-.5v-.6c-.1-.2-.1-.4-.2-.6v-.5l.4-.5.4-.4a4.4,4.4,0,0,0,.8-1.1,2.6,2.6,0,0,0,.5-1.2v-.4a.5.5,0,0,0-.2-.4l-.2-.2a.4.4,0,0,0-.1-.3.2.2,0,0,0-.2-.2h-.4a2.7,2.7,0,0,1-.8.7l-.7.7h-.2a.3.3,0,0,1-.4,0l-.3-.3a.9.9,0,0,0-.5-.3H48.2c-.1.1-.2.2-.2.3v.2h.1l.3,1,.3,1a.4.4,0,0,1,0,.5,1.8,1.8,0,0,1-.5.7l-.3.6-.7,1.2c-.5.8-1,.9-1.5,1.7l-.7.9h0a8.9,8.9,0,0,1,.3-1.4c.2-.4.3-.9.5-1.4a.6.6,0,0,1,.1-.4l.2-.5c.1-.3.1-.6.2-.9l.3-.8c0-.2.1-.3.1-.5s.1-.2.1-.4a.6.6,0,0,0-.1-.6.9.9,0,0,0-.7-.3h-.3l-.4.2-.4.3h-.2a2.1,2.1,0,0,0-1.2-.5,2,2,0,0,0-1.3.1H42a5.3,5.3,0,0,0-3.2,2.8l-.9,1.9a10.7,10.7,0,0,0-.7,1.9,3,3,0,0,0-.2,1,2.8,2.8,0,0,0,.1.9,1.7,1.7,0,0,0,.7,1.3l.7.4.7.2a1.7,1.7,0,0,0,1.4-.1l.5-.3.4-.3h.2a.3.3,0,0,0,.1-.2c.1-.1.3-.3.3-.4l.3-.6h.3a2,2,0,0,0,1.1.9H44a1.4,1.4,0,0,0,.9,0l.8-.4.6-.4a1.2,1.2,0,0,1,.5-.5l1-1.1,1.1-1.1.2-.2h.2c.1,0,.2.1.1.2v.6a2,2,0,0,0,.4.8,1.6,1.6,0,0,0,.7.7,3.9,3.9,0,0,0,2.1.3,3.1,3.1,0,0,0,2-1.1,6.4,6.4,0,0,1,1-1.3l.9-1.2.6-.8.6-.8.6-.8.5-.9c.1-.2.1-.4.2-.5a1.3,1.3,0,0,0-.1-.6ZM45.1,26.5ZM43.4,23a4.9,4.9,0,0,1-.4,1.1h0v.2a4.1,4.1,0,0,0-.7,1.1,2.4,2.4,0,0,1-.6,1.1,3.9,3.9,0,0,1-1.8,1.8c0,.1-.1.1-.1,0h-.1v-.8a2.9,2.9,0,0,1,.2-.9l.3-.8.3-.9c.1-.1.1-.3.2-.4l.2-.5.6-1.4.7-1.4.2-.4a.8.8,0,0,1,.4-.4h.5l.5.5a1.4,1.4,0,0,1,.2.6.2.2,0,0,1,0,.3V22c-.2.3-.3.7-.5,1Z" transform="translate(0 0)"/><path class="a-logo" d="M27.5,54.7c-.1-.1-.3-.2-.2-.3a1.2,1.2,0,0,1,.7-.5,1.1,1.1,0,0,0,.8-.3l-.2-.3,1.4-.4,1.2-.8.5-.3.6-.3c-.1-.1-.2-.2-.1-.3l.5-.2h.9a.3.3,0,0,0,.1-.2l.6-.2a37.8,37.8,0,0,1,8.3-3.2,8,8,0,0,1,2-.7h3.2c-.2-.9,2.2-1.4,1.8-2.3s1.6.1,1.7-.2.7-1.6,2.5-2,1.8.3,2.1.2.1-.1.1-.2l-.3-.2c-.3-.1-.5-.3-.3-.4a70.4,70.4,0,0,0-7.9-.3l-8,.7c-.9.4-4.4.9-8.2,2.3-1,.3-1.9.8-2.9,1.2l-1.2.7-1.2.6-1.9,1.3-.8.5-.6.4-.2.2a13.6,13.6,0,0,0-3.8,4.2,12.9,12.9,0,0,0-.6,2.1l.9-.5a2.9,2.9,0,0,0-.9,1.4c-.4,1.5.5,1,1.3.8s.5.5,1.1.2a4.2,4.2,0,0,0-.6.8c.1.1.2-.2.4-.4s.3-.5.4-.3a6,6,0,0,0-.6,1.1c.3,0,.8-1.1,1.1-.9s-1,.7-.7,1,.3-.3.4-.5a2.3,2.3,0,0,0-.2,1.3c.1.2.3.2.8-.1l-.4.4a1.7,1.7,0,0,0-.2.5H21c.1-.1.2-.2.2-.3a1.7,1.7,0,0,0-.2.5h.2c0-.1.2-.2.2-.3s-.1.2-.1.3h.5c.4-.3,1-.5,1.1-.7s1.4-1.6,2.1-2.4l1.2-1.1,1.3-1" transform="translate(0 0)"/></svg>
