<svg xmlns="http://www.w3.org/2000/svg" viewBox="0 0 253.9 186.9"><defs><style>.a{fill:#11434f;}</style></defs><title>quote</title><path class="a" d="M106.4,39.4C87.8,53.5,76.6,69.3,76.6,82.2c0,5.6,2.2,10.1,8.4,16.3l2.8,3.4c9.6,9.6,13.5,17.5,13.5,29.3,0,30.4-24.7,55.7-54,55.7C19.7,186.9,0,166.1,0,136.2c0-22.5,10.7-47.8,29.8-70.3C51.8,40,73.2,25.3,126.1,0l10.1,20.3C120.5,29.8,116,32.7,106.4,39.4Zm118.2,0c-19.1,14.1-30.4,29.9-30.4,42.8,0,5.6,2.3,10.1,8.5,16.3l2.8,3.4c10.1,9.6,13.5,17.5,13.5,29.3,0,30.4-24.2,55.7-53.5,55.7s-47.3-20.8-47.3-50.7c0-22.5,10.7-47.8,29.3-70.3C169.5,40,190.9,25.3,243.8,0l10.1,20.3C238.7,29.8,234.2,32.7,224.6,39.4Z"/></svg>