<svg xmlns="http://www.w3.org/2000/svg" viewBox="0 0 173.2 300"><path class="sniper" d="M169,27.6H131.1v3.7H119.8V51h11.3v3.8H169s4.2-2.4,4.2-5.2V32.8C173.2,29.9,169,27.6,169,27.6Z" transform="translate(0)"/><path class="sniper" d="M129.7,20.2V5.5h-.6a6.7,6.7,0,0,0-3.4.9V19.4a6.7,6.7,0,0,0,3.4.9Z" transform="translate(0)"/><path class="snipe" d="M131.2,57.3,107.7,85.4,85.5,74.8l-7.2,8.7c-8.5,10.4-17.1,20.8-17.1,20.9a13.1,13.1,0,0,1-10.1,4.8A12.9,12.9,0,0,1,44,107h-.2c-2.7-1.8-12.1-8.2-19.9-14.3a75.6,75.6,0,0,1-8.2-7.1h-.2a26.9,26.9,0,0,1-4.1-5.2h0l-.2-.2a16.7,16.7,0,0,1-1.6-4.7c-5.5,30.2-1.5,50.1,5.4,78.8a11.8,11.8,0,0,0,.4,2h0c.3,1,4.3,16.2,4.3,39a193.1,193.1,0,0,1-18.2,82,16.2,16.2,0,0,0,7.8,21.5,16.8,16.8,0,0,0,6.9,1.5,16,16,0,0,0,14.6-9.3,224.4,224.4,0,0,0,21.3-95.7c0-6.6-.3-12.6-.8-18l.4.2c.7.3,7.1,3.5,13.3,11.6S78,211,78.1,235.2c0,12.1-1.8,26.8-6.4,44.5a16.3,16.3,0,0,0,11.6,19.8,19.2,19.2,0,0,0,4.1.5A16.1,16.1,0,0,0,103,287.9c5.2-20,7.4-37.4,7.4-52.7.1-32.5-10.4-55-21.8-68.7a74,74,0,0,0-13.8-13.1c-7.9-26.1-3.3-40.8,6.5-57.7L106,107.5a9.8,9.8,0,0,0,4.4,1,10.6,10.6,0,0,0,8-3.7l30.4-36.2a10.4,10.4,0,0,0,1.3-11.3Z" transform="translate(0)"/><path class="snipe" d="M63.6,58.2h2.1l2-2.4c4.1-5,6.5-7.7,7.9-9.3l.3-.4,1.6-1.5h.2l2.1-1.5h.6A12.6,12.6,0,0,1,86,41.3a12.1,12.1,0,0,1,3.8.6,25,25,0,0,0,1.5-3.8v4.4a8,8,0,0,1,1.6.8,12.5,12.5,0,0,1,5.5,7.2,11.6,11.6,0,0,1,.6,3.8,12.9,12.9,0,0,1-3.4,8.8h16.5a5.2,5.2,0,0,0,5.1-5.2V24.3a5.1,5.1,0,0,0-5.1-5.1H100.3l-.4-.5c-.2-.2-1.1-1.5-.7-2.4a2.1,2.1,0,0,1,1.6-1.2l23.6,3.4V7.2l-24.3,3.5h0v-.6a7.2,7.2,0,0,0-5.4,4.3,7.1,7.1,0,0,0,.1,5,5.5,5.5,0,0,0-2.8,2.6,28.1,28.1,0,0,0-1-3.1A29.1,29.1,0,1,0,63.6,58.2Zm54.1-47a1.4,1.4,0,0,1,1.4,1.4,1.4,1.4,0,0,1-1.4,1.3,1.3,1.3,0,0,1-1.3-1.3A1.3,1.3,0,0,1,117.7,11.2Z" transform="translate(0)"/><path class="snipe" d="M17.5,83.7a81.3,81.3,0,0,0,8,6.9c8.9,6.9,19.8,14.2,19.9,14.3a11.1,11.1,0,0,0,5.7,1.7,10.4,10.4,0,0,0,8.1-3.8l17.1-21L88.2,67.5l4-4.6.6-.8a10.3,10.3,0,0,0,3.6-7.8,9.9,9.9,0,0,0-.5-3.1,10.4,10.4,0,0,0-4.4-5.7,9.9,9.9,0,0,0-5.4-1.6,10.9,10.9,0,0,0-5,1.3l-1.9,1.3a13.2,13.2,0,0,0-1.7,1.7l-7.8,9.2L49.2,82.3c-3.6-2.5-7.8-5.5-11.3-8.3l-3.7-3a7.9,7.9,0,0,0-.5-2.2l15,10,9.6-11.7L29.2,60.6c-2-.5-5.2.1-8.4,1.4a11.8,11.8,0,0,0-3.3,1.3A10.9,10.9,0,0,0,15.3,65l-.5.3H15a8,8,0,0,0-1.5,2.1A10.6,10.6,0,0,0,12,72.8a12,12,0,0,0,1.7,6.1A25.1,25.1,0,0,0,17.5,83.7Z" transform="translate(0)"/><path class="snipe" d="M136.5,12.8a7.5,7.5,0,0,0-5.4-7.1V20A7.5,7.5,0,0,0,136.5,12.8Z" transform="translate(0)"/></svg>
