<svg xmlns="http://www.w3.org/2000/svg" viewBox="0 0 84 120.7"><path class="speaker" d="M83.4,22.2,73.2,3.8A6.8,6.8,0,0,0,67.4.3H16.6a6.8,6.8,0,0,0-5.8,3.5L.6,22.2A4.6,4.6,0,0,0,0,24.5v89.8A6.6,6.6,0,0,0,6.4,121H77.6a6.6,6.6,0,0,0,6.4-6.7V24.5a4.6,4.6,0,0,0-.6-2.3ZM42,105.5A21.2,21.2,0,1,1,63,84.3,21,21,0,0,1,42,105.5Zm0-16.1a5.3,5.3,0,1,0-5.2-5.2A5.2,5.2,0,0,0,42,89.4Zm0-68A15.8,15.8,0,1,1,26.2,37.2,15.8,15.8,0,0,1,42,21.4Zm5.2,15.4a5.2,5.2,0,1,1-10.4,0,5.2,5.2,0,0,1,10.4,0" transform="translate(0 -0.3)"/></svg>
