<svg xmlns="http://www.w3.org/2000/svg" viewBox="0 0 230 317"><path class="speedbag" d="M119,0h17V46h84a8,8,0,0,1,8,8v1a8,8,0,0,1-8,8H42a8,8,0,0,1-8-8V54a8,8,0,0,1,8-8h77V18H24V317H-2V0H119Z" transform="translate(2)"/><path class="bag" d="M141,106.7c0-.2.1-.3.1-.4a1.4,1.4,0,0,0-.2-.7L139,94.1a1.9,1.9,0,0,0-1.9-1.7h-.7l-5.2-12.3V64.7a2,2,0,0,0-2-2,1.9,1.9,0,0,0-1.9,2V80.1L122,92.4h-.6a2,2,0,0,0-2,1.7L117.5,106a.6.6,0,0,0,0,.6c-8.1,8.6-17.8,21.7-17.8,34.8,0,16.7,13.3,30.3,29.5,30.3s29.5-13.6,29.5-30.3c0-13.1-9.7-26.2-17.7-34.7Zm-17.5,6.9c-3.7,7.2-8,18-8,28.8,0,8.3,2.1,15.8,5.9,20.6a2,2,0,0,1-.3,2.8,1.9,1.9,0,0,1-1.2.4,2.4,2.4,0,0,1-1.6-.7c-4.3-5.5-6.8-13.9-6.8-23.1,0-11.6,4.7-23,8.5-30.6a2,2,0,0,1,2.7-.9,2.1,2.1,0,0,1,.8,2.7Zm2.8-21.2,2.9-6.9,2.9,6.9Zm13.8,73.1a2.1,2.1,0,0,1-1.5.7,2,2,0,0,1-1.3-.4,2.1,2.1,0,0,1-.3-2.8c3.8-4.8,6-12.3,6-20.6,0-10.8-4.4-21.6-8.1-28.8a2,2,0,0,1,.9-2.7,1.9,1.9,0,0,1,2.6.9c3.9,7.6,8.5,19,8.5,30.6,0,9.2-2.5,17.6-6.8,23.1Z" transform="translate(2)"/></svg>
