<svg width="94" height="104" xmlns="http://www.w3.org/2000/svg"><path d="M29.013 44.92s-13.136-.6-11.648-8.666c.633-3.43 6.509-3.606 12.803-9.592 10.824-10.295 12.568-19.96 12.568-19.96v71.86c0 12.51-6.508 25.347-23.207 23.195C2.831 99.605-1.08 85.563 4.192 75.139c5.272-10.425 14.227-17.87 42.758-23.08 28.53-5.21 33.793-8.505 39.71-15 7.603-8.346 9.097-30.282-5.517-34.09C66.53-.84 55.733 7.808 55.733 7.808v86.826C61.698 95.33 73 71.14 73 71.14s10.747 19.58 17.72 19.495V44.573" stroke="#363A4D" stroke-width="3" fill="none" stroke-linecap="square" stroke-linejoin="round"/></svg>